<svg width="400" height="131" viewBox="0 0 400 131" fill="none" xmlns="http://www.w3.org/2000/svg">
<path d="M373.963 130.503H21.8945C8.19149 119.909 0.492188 105.548 0.492188 90.5714V87.6198H92.2332L98.3897 94.4175H344.817L352.615 87.6099H399.506L372.346 119.188C370.744 120.923 371.621 123.661 374.209 124.411L376.235 125.087C380.114 126.22 378.103 130.503 373.963 130.503Z" fill="white"/>
<path d="M373.963 131H21.8952C21.788 130.998 21.6842 130.962 21.5995 130.896C7.66973 120.133 0 105.812 0 90.5714V87.6198C0 87.488 0.0519318 87.3616 0.144371 87.2684C0.23681 87.1752 0.362185 87.1229 0.492913 87.1229H92.2339C92.3027 87.123 92.3707 87.1377 92.4335 87.1659C92.4964 87.1942 92.5526 87.2354 92.5987 87.2868L98.6073 93.9206H344.635L352.29 87.2371C352.38 87.1573 352.496 87.1131 352.615 87.1129H399.506C399.601 87.1131 399.694 87.1409 399.773 87.1929C399.853 87.2449 399.916 87.3189 399.955 87.4061C399.994 87.4925 400.008 87.5886 399.995 87.6829C399.982 87.7771 399.942 87.8656 399.881 87.9378L372.721 119.516C372.427 119.821 372.217 120.199 372.113 120.612C372.009 121.024 372.015 121.457 372.13 121.867C372.291 122.374 372.58 122.831 372.967 123.193C373.355 123.555 373.829 123.81 374.343 123.934L376.389 124.615C378.36 125.181 378.932 126.543 378.784 127.626C378.557 129.291 376.689 131 373.963 131ZM22.0628 130.006H373.963C376.122 130.006 377.641 128.704 377.803 127.522C377.927 126.642 377.31 125.941 376.098 125.598L374.057 124.913C373.378 124.744 372.754 124.4 372.247 123.915C371.74 123.43 371.367 122.82 371.164 122.145C371.002 121.574 370.992 120.97 371.134 120.394C371.275 119.818 371.565 119.289 371.972 118.86L398.412 88.1167H352.798L345.143 94.8051C345.052 94.8832 344.937 94.9255 344.818 94.9243H98.3904C98.3217 94.9242 98.2537 94.9095 98.1908 94.8812C98.128 94.853 98.0718 94.8118 98.0257 94.7603L92.0171 88.1167H0.985827V90.5714C0.985827 105.449 8.46825 119.447 22.0628 130.006Z" fill="#0099AB"/>
<path d="M240.847 52.23H232.743V94.4275H240.847V52.23Z" fill="white"/>
<path d="M240.848 94.9145H232.745C232.614 94.9145 232.489 94.8621 232.396 94.769C232.304 94.6758 232.252 94.5494 232.252 94.4176V52.2301C232.252 52.0983 232.304 51.9719 232.396 51.8787C232.489 51.7855 232.614 51.7332 232.745 51.7332H240.848C240.979 51.7332 241.104 51.7855 241.197 51.8787C241.289 51.9719 241.341 52.0983 241.341 52.2301V94.4176C241.341 94.5494 241.289 94.6758 241.197 94.769C241.104 94.8621 240.979 94.9145 240.848 94.9145ZM233.238 93.9207H240.355V52.727H233.238V93.9207Z" fill="#0099AB"/>
<path d="M240.847 34.1923H236.795L234.77 52.23H240.847V34.1923Z" fill="white"/>
<path d="M240.846 52.7269H234.768C234.698 52.7268 234.629 52.7117 234.566 52.6826C234.502 52.6535 234.445 52.611 234.399 52.558C234.354 52.506 234.32 52.4451 234.3 52.3792C234.279 52.3133 234.273 52.2439 234.28 52.1754L236.306 34.1376C236.32 34.0155 236.378 33.9027 236.469 33.821C236.56 33.7394 236.677 33.6946 236.799 33.6953H240.851C240.982 33.6953 241.107 33.7477 241.2 33.8409C241.292 33.9341 241.344 34.0604 241.344 34.1922V52.23C241.344 52.2957 241.331 52.3607 241.306 52.4213C241.281 52.4819 241.244 52.5369 241.198 52.5831C241.152 52.6294 241.097 52.6659 241.036 52.6905C240.976 52.7152 240.911 52.7276 240.846 52.7269ZM235.321 51.7331H240.353V34.6891H237.233L235.321 51.7331Z" fill="#0099AB"/>
<path d="M278.653 53.5915L268.893 54.953H232.743V52.23H278.653V53.5915Z" fill="white"/>
<path d="M268.895 55.45H232.745C232.614 55.45 232.489 55.3977 232.396 55.3045C232.304 55.2113 232.252 55.0849 232.252 54.9531V52.2301C232.252 52.0983 232.304 51.9719 232.396 51.8787C232.489 51.7855 232.614 51.7332 232.745 51.7332H278.655C278.786 51.7332 278.911 51.7855 279.003 51.8787C279.096 51.9719 279.148 52.0983 279.148 52.2301V53.5916C279.149 53.7122 279.107 53.8291 279.029 53.9205C278.951 54.0119 278.842 54.0716 278.724 54.0885L268.964 55.45H268.895ZM233.238 54.4562H268.861L278.162 53.1742V52.7419H233.238V54.4562Z" fill="#0099AB"/>
<path d="M278.652 52.727C278.58 52.7272 278.509 52.7102 278.445 52.6773L240.638 34.9824C240.575 34.9579 240.518 34.9207 240.47 34.873C240.422 34.8253 240.384 34.7681 240.358 34.705C240.333 34.6419 240.321 34.5742 240.322 34.5061C240.324 34.4381 240.34 34.3711 240.368 34.3093C240.397 34.2476 240.437 34.1924 240.488 34.1471C240.538 34.1019 240.597 34.0676 240.662 34.0464C240.726 34.0251 240.793 34.0174 240.861 34.0237C240.928 34.03 240.993 34.0502 241.052 34.083L278.859 51.7779C278.962 51.825 279.045 51.9062 279.096 52.0079C279.146 52.1097 279.16 52.2257 279.136 52.3368C279.112 52.4479 279.051 52.5472 278.962 52.6182C278.874 52.6892 278.765 52.7276 278.652 52.727Z" fill="#0099AB"/>
<path d="M278.655 94.9144C278.524 94.9144 278.399 94.8621 278.306 94.7689C278.214 94.6757 278.162 94.5493 278.162 94.4175V53.5915C278.162 53.4597 278.214 53.3333 278.306 53.2401C278.399 53.147 278.524 53.0946 278.655 53.0946C278.786 53.0946 278.911 53.147 279.004 53.2401C279.096 53.3333 279.148 53.4597 279.148 53.5915V94.4175C279.148 94.5493 279.096 94.6757 279.004 94.7689C278.911 94.8621 278.786 94.9144 278.655 94.9144Z" fill="#0099AB"/>
<path d="M247.596 65.1595H240.848V54.953H248.946V62.1234L247.596 65.1595Z" fill="white"/>
<path d="M247.596 65.6565H240.848C240.718 65.6565 240.592 65.6041 240.5 65.511C240.407 65.4178 240.355 65.2914 240.355 65.1596V54.9531C240.355 54.8213 240.407 54.6949 240.5 54.6017C240.592 54.5085 240.718 54.4562 240.848 54.4562H248.947C249.078 54.4562 249.203 54.5085 249.296 54.6017C249.388 54.6949 249.44 54.8213 249.44 54.9531V62.1185C249.439 62.1883 249.426 62.2573 249.4 62.3222L248.05 65.3584C248.011 65.4472 247.948 65.5228 247.867 65.5758C247.787 65.6288 247.693 65.6568 247.596 65.6565ZM241.341 64.6627H247.281L248.454 62.0142V55.45H241.341V64.6627Z" fill="#0099AB"/>
<path d="M17.864 65.8405H40.3261V87.62H17.3711V66.3374C17.3711 66.2056 17.423 66.0792 17.5155 65.986C17.6079 65.8928 17.7333 65.8405 17.864 65.8405Z" fill="white"/>
<path d="M40.3248 88.1168H17.3699C17.2391 88.1168 17.1138 88.0645 17.0213 87.9713C16.9289 87.8781 16.877 87.7517 16.877 87.6199V66.3373C16.877 66.0737 16.9808 65.821 17.1657 65.6346C17.3506 65.4482 17.6013 65.3435 17.8628 65.3435H40.3248C40.4556 65.3435 40.5809 65.3959 40.6734 65.489C40.7658 65.5822 40.8178 65.7086 40.8178 65.8404V87.6199C40.8178 87.7517 40.7658 87.8781 40.6734 87.9713C40.5809 88.0645 40.4556 88.1168 40.3248 88.1168ZM17.8628 87.123H39.8319V66.3373H17.8628V87.123Z" fill="#0099AB"/>
<path d="M137.396 81.8358H109.191V94.4275H137.396V81.8358Z" fill="white"/>
<path d="M137.396 94.9145H109.191C109.06 94.9145 108.935 94.8622 108.843 94.769C108.75 94.6758 108.698 94.5494 108.698 94.4176V81.8359C108.698 81.7041 108.75 81.5777 108.843 81.4845C108.935 81.3913 109.06 81.339 109.191 81.339H137.396C137.526 81.339 137.652 81.3913 137.744 81.4845C137.837 81.5777 137.889 81.7041 137.889 81.8359V94.4176C137.889 94.5494 137.837 94.6758 137.744 94.769C137.652 94.8622 137.526 94.9145 137.396 94.9145ZM109.684 93.9207H136.903V82.3328H109.684V93.9207Z" fill="#0099AB"/>
<path d="M113.223 91.8784C113.093 91.8784 112.967 91.826 112.875 91.7329C112.782 91.6397 112.73 91.5133 112.73 91.3815V84.8819C112.73 84.7501 112.782 84.6237 112.875 84.5306C112.967 84.4374 113.093 84.385 113.223 84.385C113.354 84.385 113.479 84.4374 113.572 84.5306C113.664 84.6237 113.716 84.7501 113.716 84.8819V91.3815C113.716 91.5133 113.664 91.6397 113.572 91.7329C113.479 91.826 113.354 91.8784 113.223 91.8784Z" fill="#0099AB"/>
<path d="M117.249 91.8784C117.118 91.8784 116.993 91.826 116.9 91.7329C116.808 91.6397 116.756 91.5133 116.756 91.3815V84.8819C116.756 84.7501 116.808 84.6237 116.9 84.5306C116.993 84.4374 117.118 84.385 117.249 84.385C117.379 84.385 117.505 84.4374 117.597 84.5306C117.69 84.6237 117.742 84.7501 117.742 84.8819V91.3815C117.742 91.5133 117.69 91.6397 117.597 91.7329C117.505 91.826 117.379 91.8784 117.249 91.8784Z" fill="#0099AB"/>
<path d="M121.281 91.8784C121.15 91.8784 121.025 91.826 120.932 91.7329C120.84 91.6397 120.788 91.5133 120.788 91.3815V84.8819C120.788 84.7501 120.84 84.6237 120.932 84.5306C121.025 84.4374 121.15 84.385 121.281 84.385C121.412 84.385 121.537 84.4374 121.63 84.5306C121.722 84.6237 121.774 84.7501 121.774 84.8819V91.3815C121.774 91.5133 121.722 91.6397 121.63 91.7329C121.537 91.826 121.412 91.8784 121.281 91.8784Z" fill="#0099AB"/>
<path d="M125.308 91.8784C125.178 91.8784 125.052 91.826 124.96 91.7329C124.867 91.6397 124.815 91.5133 124.815 91.3815V84.8819C124.815 84.7501 124.867 84.6237 124.96 84.5306C125.052 84.4374 125.178 84.385 125.308 84.385C125.439 84.385 125.564 84.4374 125.657 84.5306C125.749 84.6237 125.801 84.7501 125.801 84.8819V91.3815C125.801 91.5133 125.749 91.6397 125.657 91.7329C125.564 91.826 125.439 91.8784 125.308 91.8784Z" fill="#0099AB"/>
<path d="M129.336 91.8784C129.205 91.8784 129.08 91.826 128.987 91.7329C128.895 91.6397 128.843 91.5133 128.843 91.3815V84.8819C128.843 84.7501 128.895 84.6237 128.987 84.5306C129.08 84.4374 129.205 84.385 129.336 84.385C129.466 84.385 129.592 84.4374 129.684 84.5306C129.777 84.6237 129.829 84.7501 129.829 84.8819V91.3815C129.829 91.5133 129.777 91.6397 129.684 91.7329C129.592 91.826 129.466 91.8784 129.336 91.8784Z" fill="#0099AB"/>
<path d="M133.368 91.8784C133.237 91.8784 133.112 91.826 133.019 91.7329C132.927 91.6397 132.875 91.5133 132.875 91.3815V84.8819C132.875 84.7501 132.927 84.6237 133.019 84.5306C133.112 84.4374 133.237 84.385 133.368 84.385C133.499 84.385 133.624 84.4374 133.716 84.5306C133.809 84.6237 133.861 84.7501 133.861 84.8819V91.3815C133.861 91.5133 133.809 91.6397 133.716 91.7329C133.624 91.826 133.499 91.8784 133.368 91.8784Z" fill="#0099AB"/>
<path d="M165.751 81.8358H137.547V94.4275H165.751V81.8358Z" fill="white"/>
<path d="M165.752 94.9145H137.548C137.417 94.9145 137.292 94.8622 137.199 94.769C137.107 94.6758 137.055 94.5494 137.055 94.4176V81.8359C137.055 81.7041 137.107 81.5777 137.199 81.4845C137.292 81.3913 137.417 81.339 137.548 81.339H165.752C165.883 81.339 166.008 81.3913 166.101 81.4845C166.193 81.5777 166.245 81.7041 166.245 81.8359V94.4176C166.245 94.5494 166.193 94.6758 166.101 94.769C166.008 94.8622 165.883 94.9145 165.752 94.9145ZM138.041 93.9207H165.259V82.3328H138.041V93.9207Z" fill="#0099AB"/>
<path d="M141.579 91.8784C141.448 91.8784 141.323 91.826 141.23 91.7329C141.138 91.6397 141.086 91.5133 141.086 91.3815V84.8819C141.086 84.7501 141.138 84.6237 141.23 84.5306C141.323 84.4374 141.448 84.385 141.579 84.385C141.71 84.385 141.835 84.4374 141.927 84.5306C142.02 84.6237 142.072 84.7501 142.072 84.8819V91.3815C142.072 91.5133 142.02 91.6397 141.927 91.7329C141.835 91.826 141.71 91.8784 141.579 91.8784Z" fill="#0099AB"/>
<path d="M145.608 91.8784C145.477 91.8784 145.352 91.826 145.26 91.7329C145.167 91.6397 145.115 91.5133 145.115 91.3815V84.8819C145.115 84.7501 145.167 84.6237 145.26 84.5306C145.352 84.4374 145.477 84.385 145.608 84.385C145.739 84.385 145.864 84.4374 145.957 84.5306C146.049 84.6237 146.101 84.7501 146.101 84.8819V91.3815C146.101 91.5133 146.049 91.6397 145.957 91.7329C145.864 91.826 145.739 91.8784 145.608 91.8784Z" fill="#0099AB"/>
<path d="M149.633 91.8784C149.502 91.8784 149.376 91.826 149.284 91.7329C149.192 91.6397 149.14 91.5133 149.14 91.3815V84.8819C149.14 84.7501 149.192 84.6237 149.284 84.5306C149.376 84.4374 149.502 84.385 149.633 84.385C149.763 84.385 149.889 84.4374 149.981 84.5306C150.074 84.6237 150.125 84.7501 150.125 84.8819V91.3815C150.125 91.5133 150.074 91.6397 149.981 91.7329C149.889 91.826 149.763 91.8784 149.633 91.8784Z" fill="#0099AB"/>
<path d="M153.665 91.8784C153.534 91.8784 153.409 91.826 153.316 91.7329C153.224 91.6397 153.172 91.5133 153.172 91.3815V84.8819C153.172 84.7501 153.224 84.6237 153.316 84.5306C153.409 84.4374 153.534 84.385 153.665 84.385C153.796 84.385 153.921 84.4374 154.013 84.5306C154.106 84.6237 154.158 84.7501 154.158 84.8819V91.3815C154.158 91.5133 154.106 91.6397 154.013 91.7329C153.921 91.826 153.796 91.8784 153.665 91.8784Z" fill="#0099AB"/>
<path d="M157.691 91.8784C157.56 91.8784 157.435 91.826 157.343 91.7329C157.25 91.6397 157.198 91.5133 157.198 91.3815V84.8819C157.198 84.7501 157.25 84.6237 157.343 84.5306C157.435 84.4374 157.56 84.385 157.691 84.385C157.822 84.385 157.947 84.4374 158.04 84.5306C158.132 84.6237 158.184 84.7501 158.184 84.8819V91.3815C158.184 91.5133 158.132 91.6397 158.04 91.7329C157.947 91.826 157.822 91.8784 157.691 91.8784Z" fill="#0099AB"/>
<path d="M161.723 91.8784C161.593 91.8784 161.467 91.826 161.375 91.7329C161.282 91.6397 161.23 91.5133 161.23 91.3815V84.8819C161.23 84.7501 161.282 84.6237 161.375 84.5306C161.467 84.4374 161.593 84.385 161.723 84.385C161.854 84.385 161.979 84.4374 162.072 84.5306C162.164 84.6237 162.216 84.7501 162.216 84.8819V91.3815C162.216 91.5133 162.164 91.6397 162.072 91.7329C161.979 91.826 161.854 91.8784 161.723 91.8784Z" fill="#0099AB"/>
<path d="M194.107 81.8358H165.902V94.4275H194.107V81.8358Z" fill="white"/>
<path d="M194.11 94.9145H165.905C165.774 94.9145 165.649 94.8622 165.556 94.769C165.464 94.6758 165.412 94.5494 165.412 94.4176V81.8359C165.412 81.7041 165.464 81.5777 165.556 81.4845C165.649 81.3913 165.774 81.339 165.905 81.339H194.11C194.24 81.339 194.366 81.3913 194.458 81.4845C194.551 81.5777 194.602 81.7041 194.602 81.8359V94.4176C194.602 94.5494 194.551 94.6758 194.458 94.769C194.366 94.8622 194.24 94.9145 194.11 94.9145ZM166.398 93.9207H193.617V82.3328H166.398V93.9207Z" fill="#0099AB"/>
<path d="M169.931 91.8784C169.801 91.8784 169.675 91.826 169.583 91.7329C169.49 91.6397 169.438 91.5133 169.438 91.3815V84.8819C169.438 84.7501 169.49 84.6237 169.583 84.5306C169.675 84.4374 169.801 84.385 169.931 84.385C170.062 84.385 170.187 84.4374 170.28 84.5306C170.372 84.6237 170.424 84.7501 170.424 84.8819V91.3815C170.424 91.5133 170.372 91.6397 170.28 91.7329C170.187 91.826 170.062 91.8784 169.931 91.8784Z" fill="#0099AB"/>
<path d="M173.964 91.8784C173.833 91.8784 173.708 91.826 173.615 91.7329C173.523 91.6397 173.471 91.5133 173.471 91.3815V84.8819C173.471 84.7501 173.523 84.6237 173.615 84.5306C173.708 84.4374 173.833 84.385 173.964 84.385C174.094 84.385 174.22 84.4374 174.312 84.5306C174.405 84.6237 174.457 84.7501 174.457 84.8819V91.3815C174.457 91.5133 174.405 91.6397 174.312 91.7329C174.22 91.826 174.094 91.8784 173.964 91.8784Z" fill="#0099AB"/>
<path d="M177.99 91.8784C177.859 91.8784 177.734 91.826 177.641 91.7329C177.549 91.6397 177.497 91.5133 177.497 91.3815V84.8819C177.497 84.7501 177.549 84.6237 177.641 84.5306C177.734 84.4374 177.859 84.385 177.99 84.385C178.121 84.385 178.246 84.4374 178.339 84.5306C178.431 84.6237 178.483 84.7501 178.483 84.8819V91.3815C178.483 91.5133 178.431 91.6397 178.339 91.7329C178.246 91.826 178.121 91.8784 177.99 91.8784Z" fill="#0099AB"/>
<path d="M182.02 91.8784C181.89 91.8784 181.764 91.826 181.672 91.7329C181.579 91.6397 181.527 91.5133 181.527 91.3815V84.8819C181.527 84.7501 181.579 84.6237 181.672 84.5306C181.764 84.4374 181.89 84.385 182.02 84.385C182.151 84.385 182.276 84.4374 182.369 84.5306C182.461 84.6237 182.513 84.7501 182.513 84.8819V91.3815C182.513 91.5133 182.461 91.6397 182.369 91.7329C182.276 91.826 182.151 91.8784 182.02 91.8784Z" fill="#0099AB"/>
<path d="M186.049 91.8784C185.918 91.8784 185.792 91.826 185.7 91.7329C185.608 91.6397 185.556 91.5133 185.556 91.3815V84.8819C185.556 84.7501 185.608 84.6237 185.7 84.5306C185.792 84.4374 185.918 84.385 186.049 84.385C186.179 84.385 186.305 84.4374 186.397 84.5306C186.49 84.6237 186.541 84.7501 186.541 84.8819V91.3815C186.541 91.5133 186.49 91.6397 186.397 91.7329C186.305 91.826 186.179 91.8784 186.049 91.8784Z" fill="#0099AB"/>
<path d="M190.076 91.8784C189.945 91.8784 189.82 91.826 189.727 91.7329C189.635 91.6397 189.583 91.5133 189.583 91.3815V84.8819C189.583 84.7501 189.635 84.6237 189.727 84.5306C189.82 84.4374 189.945 84.385 190.076 84.385C190.207 84.385 190.332 84.4374 190.424 84.5306C190.517 84.6237 190.569 84.7501 190.569 84.8819V91.3815C190.569 91.5133 190.517 91.6397 190.424 91.7329C190.332 91.826 190.207 91.8784 190.076 91.8784Z" fill="#0099AB"/>
<path d="M222.466 81.8358H194.262V94.4275H222.466V81.8358Z" fill="white"/>
<path d="M222.468 94.9145H194.263C194.133 94.9145 194.007 94.8622 193.915 94.769C193.822 94.6758 193.771 94.5494 193.771 94.4176V81.8359C193.771 81.7041 193.822 81.5777 193.915 81.4845C194.007 81.3913 194.133 81.339 194.263 81.339H222.468C222.599 81.339 222.724 81.3913 222.816 81.4845C222.909 81.5777 222.961 81.7041 222.961 81.8359V94.4176C222.961 94.4829 222.948 94.5475 222.923 94.6078C222.899 94.6681 222.862 94.7228 222.816 94.769C222.771 94.8151 222.716 94.8517 222.657 94.8767C222.597 94.9017 222.533 94.9145 222.468 94.9145ZM194.756 93.9207H221.975V82.3328H194.756V93.9207Z" fill="#0099AB"/>
<path d="M198.289 91.8784C198.158 91.8784 198.033 91.826 197.94 91.7329C197.848 91.6397 197.796 91.5133 197.796 91.3815V84.8819C197.796 84.7501 197.848 84.6237 197.94 84.5306C198.033 84.4374 198.158 84.385 198.289 84.385C198.42 84.385 198.545 84.4374 198.637 84.5306C198.73 84.6237 198.782 84.7501 198.782 84.8819V91.3815C198.782 91.5133 198.73 91.6397 198.637 91.7329C198.545 91.826 198.42 91.8784 198.289 91.8784Z" fill="#0099AB"/>
<path d="M202.32 91.8784C202.189 91.8784 202.064 91.826 201.972 91.7329C201.879 91.6397 201.827 91.5133 201.827 91.3815V84.8819C201.827 84.7501 201.879 84.6237 201.972 84.5306C202.064 84.4374 202.189 84.385 202.32 84.385C202.451 84.385 202.576 84.4374 202.669 84.5306C202.761 84.6237 202.813 84.7501 202.813 84.8819V91.3815C202.813 91.5133 202.761 91.6397 202.669 91.7329C202.576 91.826 202.451 91.8784 202.32 91.8784Z" fill="#0099AB"/>
<path d="M206.347 91.8784C206.217 91.8784 206.091 91.826 205.999 91.7329C205.906 91.6397 205.854 91.5133 205.854 91.3815V84.8819C205.854 84.7501 205.906 84.6237 205.999 84.5306C206.091 84.4374 206.217 84.385 206.347 84.385C206.478 84.385 206.604 84.4374 206.696 84.5306C206.788 84.6237 206.84 84.7501 206.84 84.8819V91.3815C206.84 91.5133 206.788 91.6397 206.696 91.7329C206.604 91.826 206.478 91.8784 206.347 91.8784Z" fill="#0099AB"/>
<path d="M210.376 91.8784C210.245 91.8784 210.12 91.826 210.027 91.7329C209.935 91.6397 209.883 91.5133 209.883 91.3815V84.8819C209.883 84.7501 209.935 84.6237 210.027 84.5306C210.12 84.4374 210.245 84.385 210.376 84.385C210.506 84.385 210.632 84.4374 210.724 84.5306C210.817 84.6237 210.869 84.7501 210.869 84.8819V91.3815C210.869 91.5133 210.817 91.6397 210.724 91.7329C210.632 91.826 210.506 91.8784 210.376 91.8784Z" fill="#0099AB"/>
<path d="M214.418 91.8784C214.287 91.8784 214.162 91.826 214.069 91.7329C213.977 91.6397 213.925 91.5133 213.925 91.3815V84.8819C213.925 84.7501 213.977 84.6237 214.069 84.5306C214.162 84.4374 214.287 84.385 214.418 84.385C214.548 84.385 214.674 84.4374 214.766 84.5306C214.859 84.6237 214.911 84.7501 214.911 84.8819V91.3815C214.911 91.5133 214.859 91.6397 214.766 91.7329C214.674 91.826 214.548 91.8784 214.418 91.8784Z" fill="#0099AB"/>
<path d="M218.433 91.8784C218.303 91.8784 218.177 91.826 218.085 91.7329C217.992 91.6397 217.94 91.5133 217.94 91.3815V84.8819C217.94 84.7501 217.992 84.6237 218.085 84.5306C218.177 84.4374 218.303 84.385 218.433 84.385C218.564 84.385 218.689 84.4374 218.782 84.5306C218.874 84.6237 218.926 84.7501 218.926 84.8819V91.3815C218.926 91.5133 218.874 91.6397 218.782 91.7329C218.689 91.826 218.564 91.8784 218.433 91.8784Z" fill="#0099AB"/>
<path d="M137.396 69.587H109.191V82.1787H137.396V69.587Z" fill="white"/>
<path d="M137.396 82.6756H109.191C109.06 82.6756 108.935 82.6232 108.843 82.53C108.75 82.4369 108.698 82.3105 108.698 82.1787V69.5721C108.698 69.4403 108.75 69.3139 108.843 69.2207C108.935 69.1275 109.06 69.0752 109.191 69.0752H137.396C137.526 69.0752 137.652 69.1275 137.744 69.2207C137.837 69.3139 137.889 69.4403 137.889 69.5721V82.1638C137.891 82.2303 137.879 82.2965 137.855 82.3585C137.832 82.4205 137.796 82.4771 137.75 82.5248C137.704 82.5725 137.649 82.6105 137.588 82.6364C137.527 82.6623 137.462 82.6756 137.396 82.6756ZM109.684 81.6818H136.903V70.069H109.684V81.6818Z" fill="#0099AB"/>
<path d="M113.223 79.6295C113.093 79.6295 112.967 79.5771 112.875 79.4839C112.782 79.3908 112.73 79.2644 112.73 79.1326V72.633C112.73 72.5012 112.782 72.3748 112.875 72.2816C112.967 72.1885 113.093 72.1361 113.223 72.1361C113.354 72.1361 113.479 72.1885 113.572 72.2816C113.664 72.3748 113.716 72.5012 113.716 72.633V79.1326C113.716 79.2644 113.664 79.3908 113.572 79.4839C113.479 79.5771 113.354 79.6295 113.223 79.6295Z" fill="#0099AB"/>
<path d="M117.249 79.6295C117.118 79.6295 116.993 79.5771 116.9 79.4839C116.808 79.3908 116.756 79.2644 116.756 79.1326V72.633C116.756 72.5012 116.808 72.3748 116.9 72.2816C116.993 72.1885 117.118 72.1361 117.249 72.1361C117.379 72.1361 117.505 72.1885 117.597 72.2816C117.69 72.3748 117.742 72.5012 117.742 72.633V79.1326C117.742 79.2644 117.69 79.3908 117.597 79.4839C117.505 79.5771 117.379 79.6295 117.249 79.6295Z" fill="#0099AB"/>
<path d="M121.281 79.6295C121.15 79.6295 121.025 79.5771 120.932 79.4839C120.84 79.3908 120.788 79.2644 120.788 79.1326V72.633C120.788 72.5012 120.84 72.3748 120.932 72.2816C121.025 72.1885 121.15 72.1361 121.281 72.1361C121.412 72.1361 121.537 72.1885 121.63 72.2816C121.722 72.3748 121.774 72.5012 121.774 72.633V79.1326C121.774 79.2644 121.722 79.3908 121.63 79.4839C121.537 79.5771 121.412 79.6295 121.281 79.6295Z" fill="#0099AB"/>
<path d="M125.308 79.6295C125.178 79.6295 125.052 79.5771 124.96 79.4839C124.867 79.3908 124.815 79.2644 124.815 79.1326V72.633C124.815 72.5012 124.867 72.3748 124.96 72.2816C125.052 72.1885 125.178 72.1361 125.308 72.1361C125.439 72.1361 125.564 72.1885 125.657 72.2816C125.749 72.3748 125.801 72.5012 125.801 72.633V79.1326C125.801 79.2644 125.749 79.3908 125.657 79.4839C125.564 79.5771 125.439 79.6295 125.308 79.6295Z" fill="#0099AB"/>
<path d="M129.336 79.6295C129.205 79.6295 129.08 79.5771 128.987 79.4839C128.895 79.3908 128.843 79.2644 128.843 79.1326V72.633C128.843 72.5012 128.895 72.3748 128.987 72.2816C129.08 72.1885 129.205 72.1361 129.336 72.1361C129.466 72.1361 129.592 72.1885 129.684 72.2816C129.777 72.3748 129.829 72.5012 129.829 72.633V79.1326C129.829 79.2644 129.777 79.3908 129.684 79.4839C129.592 79.5771 129.466 79.6295 129.336 79.6295Z" fill="#0099AB"/>
<path d="M133.368 79.6295C133.237 79.6295 133.112 79.5771 133.019 79.4839C132.927 79.3908 132.875 79.2644 132.875 79.1326V72.633C132.875 72.5012 132.927 72.3748 133.019 72.2816C133.112 72.1885 133.237 72.1361 133.368 72.1361C133.499 72.1361 133.624 72.1885 133.716 72.2816C133.809 72.3748 133.861 72.5012 133.861 72.633V79.1326C133.861 79.2644 133.809 79.3908 133.716 79.4839C133.624 79.5771 133.499 79.6295 133.368 79.6295Z" fill="#0099AB"/>
<path d="M165.751 69.587H137.547V82.1787H165.751V69.587Z" fill="white"/>
<path d="M165.752 82.6756H137.548C137.417 82.6756 137.292 82.6232 137.199 82.53C137.107 82.4369 137.055 82.3105 137.055 82.1787V69.5721C137.055 69.4403 137.107 69.3139 137.199 69.2207C137.292 69.1275 137.417 69.0752 137.548 69.0752H165.752C165.883 69.0752 166.008 69.1275 166.101 69.2207C166.193 69.3139 166.245 69.4403 166.245 69.5721V82.1638C166.247 82.2303 166.236 82.2965 166.212 82.3585C166.188 82.4205 166.152 82.4771 166.106 82.5248C166.06 82.5725 166.005 82.6105 165.944 82.6364C165.883 82.6623 165.818 82.6756 165.752 82.6756ZM138.041 81.6818H165.259V70.069H138.041V81.6818Z" fill="#0099AB"/>
<path d="M141.579 79.6295C141.448 79.6295 141.323 79.5771 141.23 79.4839C141.138 79.3908 141.086 79.2644 141.086 79.1326V72.633C141.086 72.5012 141.138 72.3748 141.23 72.2816C141.323 72.1885 141.448 72.1361 141.579 72.1361C141.71 72.1361 141.835 72.1885 141.927 72.2816C142.02 72.3748 142.072 72.5012 142.072 72.633V79.1326C142.072 79.2644 142.02 79.3908 141.927 79.4839C141.835 79.5771 141.71 79.6295 141.579 79.6295Z" fill="#0099AB"/>
<path d="M145.608 79.6295C145.477 79.6295 145.352 79.5771 145.26 79.4839C145.167 79.3908 145.115 79.2644 145.115 79.1326V72.633C145.115 72.5012 145.167 72.3748 145.26 72.2816C145.352 72.1885 145.477 72.1361 145.608 72.1361C145.739 72.1361 145.864 72.1885 145.957 72.2816C146.049 72.3748 146.101 72.5012 146.101 72.633V79.1326C146.101 79.2644 146.049 79.3908 145.957 79.4839C145.864 79.5771 145.739 79.6295 145.608 79.6295Z" fill="#0099AB"/>
<path d="M149.633 79.6295C149.502 79.6295 149.376 79.5771 149.284 79.4839C149.192 79.3908 149.14 79.2644 149.14 79.1326V72.633C149.14 72.5012 149.192 72.3748 149.284 72.2816C149.376 72.1885 149.502 72.1361 149.633 72.1361C149.763 72.1361 149.889 72.1885 149.981 72.2816C150.074 72.3748 150.125 72.5012 150.125 72.633V79.1326C150.125 79.2644 150.074 79.3908 149.981 79.4839C149.889 79.5771 149.763 79.6295 149.633 79.6295Z" fill="#0099AB"/>
<path d="M153.665 79.6295C153.534 79.6295 153.409 79.5771 153.316 79.4839C153.224 79.3908 153.172 79.2644 153.172 79.1326V72.633C153.172 72.5012 153.224 72.3748 153.316 72.2816C153.409 72.1885 153.534 72.1361 153.665 72.1361C153.796 72.1361 153.921 72.1885 154.013 72.2816C154.106 72.3748 154.158 72.5012 154.158 72.633V79.1326C154.158 79.2644 154.106 79.3908 154.013 79.4839C153.921 79.5771 153.796 79.6295 153.665 79.6295Z" fill="#0099AB"/>
<path d="M157.691 79.6295C157.56 79.6295 157.435 79.5771 157.343 79.4839C157.25 79.3908 157.198 79.2644 157.198 79.1326V72.633C157.198 72.5012 157.25 72.3748 157.343 72.2816C157.435 72.1885 157.56 72.1361 157.691 72.1361C157.822 72.1361 157.947 72.1885 158.04 72.2816C158.132 72.3748 158.184 72.5012 158.184 72.633V79.1326C158.184 79.2644 158.132 79.3908 158.04 79.4839C157.947 79.5771 157.822 79.6295 157.691 79.6295Z" fill="#0099AB"/>
<path d="M161.723 79.6295C161.593 79.6295 161.467 79.5771 161.375 79.4839C161.282 79.3908 161.23 79.2644 161.23 79.1326V72.633C161.23 72.5012 161.282 72.3748 161.375 72.2816C161.467 72.1885 161.593 72.1361 161.723 72.1361C161.854 72.1361 161.979 72.1885 162.072 72.2816C162.164 72.3748 162.216 72.5012 162.216 72.633V79.1326C162.216 79.2644 162.164 79.3908 162.072 79.4839C161.979 79.5771 161.854 79.6295 161.723 79.6295Z" fill="#0099AB"/>
<path d="M194.107 69.587H165.902V82.1787H194.107V69.587Z" fill="white"/>
<path d="M194.11 82.6756H165.905C165.774 82.6756 165.649 82.6232 165.556 82.53C165.464 82.4369 165.412 82.3105 165.412 82.1787V69.5721C165.412 69.4403 165.464 69.3139 165.556 69.2207C165.649 69.1275 165.774 69.0752 165.905 69.0752H194.11C194.24 69.0752 194.366 69.1275 194.458 69.2207C194.551 69.3139 194.602 69.4403 194.602 69.5721V82.1638C194.604 82.2303 194.593 82.2965 194.569 82.3585C194.545 82.4205 194.509 82.4771 194.463 82.5248C194.417 82.5725 194.362 82.6105 194.302 82.6364C194.241 82.6623 194.176 82.6756 194.11 82.6756ZM166.398 81.6818H193.617V70.069H166.398V81.6818Z" fill="#0099AB"/>
<path d="M169.931 79.6295C169.801 79.6295 169.675 79.5771 169.583 79.4839C169.49 79.3908 169.438 79.2644 169.438 79.1326V72.633C169.438 72.5012 169.49 72.3748 169.583 72.2816C169.675 72.1885 169.801 72.1361 169.931 72.1361C170.062 72.1361 170.187 72.1885 170.28 72.2816C170.372 72.3748 170.424 72.5012 170.424 72.633V79.1326C170.424 79.2644 170.372 79.3908 170.28 79.4839C170.187 79.5771 170.062 79.6295 169.931 79.6295Z" fill="#0099AB"/>
<path d="M173.964 79.6295C173.833 79.6295 173.708 79.5771 173.615 79.4839C173.523 79.3908 173.471 79.2644 173.471 79.1326V72.633C173.471 72.5012 173.523 72.3748 173.615 72.2816C173.708 72.1885 173.833 72.1361 173.964 72.1361C174.094 72.1361 174.22 72.1885 174.312 72.2816C174.405 72.3748 174.457 72.5012 174.457 72.633V79.1326C174.457 79.2644 174.405 79.3908 174.312 79.4839C174.22 79.5771 174.094 79.6295 173.964 79.6295Z" fill="#0099AB"/>
<path d="M177.99 79.6295C177.859 79.6295 177.734 79.5771 177.641 79.4839C177.549 79.3908 177.497 79.2644 177.497 79.1326V72.633C177.497 72.5012 177.549 72.3748 177.641 72.2816C177.734 72.1885 177.859 72.1361 177.99 72.1361C178.121 72.1361 178.246 72.1885 178.339 72.2816C178.431 72.3748 178.483 72.5012 178.483 72.633V79.1326C178.483 79.2644 178.431 79.3908 178.339 79.4839C178.246 79.5771 178.121 79.6295 177.99 79.6295Z" fill="#0099AB"/>
<path d="M182.02 79.6295C181.89 79.6295 181.764 79.5771 181.672 79.4839C181.579 79.3908 181.527 79.2644 181.527 79.1326V72.633C181.527 72.5012 181.579 72.3748 181.672 72.2816C181.764 72.1885 181.89 72.1361 182.02 72.1361C182.151 72.1361 182.276 72.1885 182.369 72.2816C182.461 72.3748 182.513 72.5012 182.513 72.633V79.1326C182.513 79.2644 182.461 79.3908 182.369 79.4839C182.276 79.5771 182.151 79.6295 182.02 79.6295Z" fill="#0099AB"/>
<path d="M186.049 79.6295C185.918 79.6295 185.792 79.5771 185.7 79.4839C185.608 79.3908 185.556 79.2644 185.556 79.1326V72.633C185.556 72.5012 185.608 72.3748 185.7 72.2816C185.792 72.1885 185.918 72.1361 186.049 72.1361C186.179 72.1361 186.305 72.1885 186.397 72.2816C186.49 72.3748 186.541 72.5012 186.541 72.633V79.1326C186.541 79.2644 186.49 79.3908 186.397 79.4839C186.305 79.5771 186.179 79.6295 186.049 79.6295Z" fill="#0099AB"/>
<path d="M190.076 79.6295C189.945 79.6295 189.82 79.5771 189.727 79.4839C189.635 79.3908 189.583 79.2644 189.583 79.1326V72.633C189.583 72.5012 189.635 72.3748 189.727 72.2816C189.82 72.1885 189.945 72.1361 190.076 72.1361C190.207 72.1361 190.332 72.1885 190.424 72.2816C190.517 72.3748 190.569 72.5012 190.569 72.633V79.1326C190.569 79.2644 190.517 79.3908 190.424 79.4839C190.332 79.5771 190.207 79.6295 190.076 79.6295Z" fill="#0099AB"/>
<path d="M222.466 69.587H194.262V82.1787H222.466V69.587Z" fill="white"/>
<path d="M222.468 82.6756H194.263C194.133 82.6756 194.007 82.6232 193.915 82.53C193.822 82.4369 193.771 82.3105 193.771 82.1787V69.5721C193.771 69.4403 193.822 69.3139 193.915 69.2207C194.007 69.1275 194.133 69.0752 194.263 69.0752H222.468C222.599 69.0752 222.724 69.1275 222.816 69.2207C222.909 69.3139 222.961 69.4403 222.961 69.5721V82.1638C222.963 82.2303 222.952 82.2965 222.928 82.3585C222.904 82.4205 222.868 82.4771 222.822 82.5248C222.776 82.5725 222.721 82.6105 222.66 82.6364C222.599 82.6623 222.534 82.6756 222.468 82.6756ZM194.756 81.6818H221.975V70.069H194.756V81.6818Z" fill="#0099AB"/>
<path d="M198.289 79.6295C198.158 79.6295 198.033 79.5771 197.94 79.4839C197.848 79.3908 197.796 79.2644 197.796 79.1326V72.633C197.796 72.5012 197.848 72.3748 197.94 72.2816C198.033 72.1885 198.158 72.1361 198.289 72.1361C198.42 72.1361 198.545 72.1885 198.637 72.2816C198.73 72.3748 198.782 72.5012 198.782 72.633V79.1326C198.782 79.2644 198.73 79.3908 198.637 79.4839C198.545 79.5771 198.42 79.6295 198.289 79.6295Z" fill="#0099AB"/>
<path d="M202.32 79.6295C202.189 79.6295 202.064 79.5771 201.972 79.4839C201.879 79.3908 201.827 79.2644 201.827 79.1326V72.633C201.827 72.5012 201.879 72.3748 201.972 72.2816C202.064 72.1885 202.189 72.1361 202.32 72.1361C202.451 72.1361 202.576 72.1885 202.669 72.2816C202.761 72.3748 202.813 72.5012 202.813 72.633V79.1326C202.813 79.2644 202.761 79.3908 202.669 79.4839C202.576 79.5771 202.451 79.6295 202.32 79.6295Z" fill="#0099AB"/>
<path d="M206.347 79.6295C206.217 79.6295 206.091 79.5771 205.999 79.4839C205.906 79.3908 205.854 79.2644 205.854 79.1326V72.633C205.854 72.5012 205.906 72.3748 205.999 72.2816C206.091 72.1885 206.217 72.1361 206.347 72.1361C206.478 72.1361 206.604 72.1885 206.696 72.2816C206.788 72.3748 206.84 72.5012 206.84 72.633V79.1326C206.84 79.2644 206.788 79.3908 206.696 79.4839C206.604 79.5771 206.478 79.6295 206.347 79.6295Z" fill="#0099AB"/>
<path d="M210.376 79.6295C210.245 79.6295 210.12 79.5771 210.027 79.4839C209.935 79.3908 209.883 79.2644 209.883 79.1326V72.633C209.883 72.5012 209.935 72.3748 210.027 72.2816C210.12 72.1885 210.245 72.1361 210.376 72.1361C210.506 72.1361 210.632 72.1885 210.724 72.2816C210.817 72.3748 210.869 72.5012 210.869 72.633V79.1326C210.869 79.2644 210.817 79.3908 210.724 79.4839C210.632 79.5771 210.506 79.6295 210.376 79.6295Z" fill="#0099AB"/>
<path d="M214.418 79.6295C214.287 79.6295 214.162 79.5771 214.069 79.4839C213.977 79.3908 213.925 79.2644 213.925 79.1326V72.633C213.925 72.5012 213.977 72.3748 214.069 72.2816C214.162 72.1885 214.287 72.1361 214.418 72.1361C214.548 72.1361 214.674 72.1885 214.766 72.2816C214.859 72.3748 214.911 72.5012 214.911 72.633V79.1326C214.911 79.2644 214.859 79.3908 214.766 79.4839C214.674 79.5771 214.548 79.6295 214.418 79.6295Z" fill="#0099AB"/>
<path d="M218.433 79.6295C218.303 79.6295 218.177 79.5771 218.085 79.4839C217.992 79.3908 217.94 79.2644 217.94 79.1326V72.633C217.94 72.5012 217.992 72.3748 218.085 72.2816C218.177 72.1885 218.303 72.1361 218.433 72.1361C218.564 72.1361 218.689 72.1885 218.782 72.2816C218.874 72.3748 218.926 72.5012 218.926 72.633V79.1326C218.926 79.2644 218.874 79.3908 218.782 79.4839C218.689 79.5771 218.564 79.6295 218.433 79.6295Z" fill="#0099AB"/>
<path d="M137.396 57.1644H109.191V69.7561H137.396V57.1644Z" fill="white"/>
<path d="M137.396 70.253H109.191C109.06 70.253 108.935 70.2006 108.843 70.1074C108.75 70.0142 108.698 69.8878 108.698 69.7561V57.1495C108.698 57.0177 108.75 56.8913 108.843 56.7981C108.935 56.7049 109.06 56.6526 109.191 56.6526H137.396C137.526 56.6526 137.652 56.7049 137.744 56.7981C137.837 56.8913 137.889 57.0177 137.889 57.1495V69.7412C137.891 69.8077 137.879 69.8739 137.855 69.9359C137.832 69.9979 137.796 70.0545 137.75 70.1022C137.704 70.1499 137.649 70.1879 137.588 70.2138C137.527 70.2397 137.462 70.253 137.396 70.253ZM109.684 69.2592H136.903V57.6464H109.684V69.2592Z" fill="#0099AB"/>
<path d="M113.223 67.2068C113.093 67.2068 112.967 67.1544 112.875 67.0612C112.782 66.968 112.73 66.8416 112.73 66.7099V60.2103C112.73 60.0785 112.782 59.9521 112.875 59.8589C112.967 59.7657 113.093 59.7134 113.223 59.7134C113.354 59.7134 113.479 59.7657 113.572 59.8589C113.664 59.9521 113.716 60.0785 113.716 60.2103V66.7099C113.716 66.8416 113.664 66.968 113.572 67.0612C113.479 67.1544 113.354 67.2068 113.223 67.2068Z" fill="#0099AB"/>
<path d="M117.249 67.2068C117.118 67.2068 116.993 67.1544 116.9 67.0612C116.808 66.968 116.756 66.8416 116.756 66.7099V60.2103C116.756 60.0785 116.808 59.9521 116.9 59.8589C116.993 59.7657 117.118 59.7134 117.249 59.7134C117.379 59.7134 117.505 59.7657 117.597 59.8589C117.69 59.9521 117.742 60.0785 117.742 60.2103V66.7099C117.742 66.8416 117.69 66.968 117.597 67.0612C117.505 67.1544 117.379 67.2068 117.249 67.2068Z" fill="#0099AB"/>
<path d="M121.281 67.2068C121.15 67.2068 121.025 67.1544 120.932 67.0612C120.84 66.968 120.788 66.8416 120.788 66.7099V60.2103C120.788 60.0785 120.84 59.9521 120.932 59.8589C121.025 59.7657 121.15 59.7134 121.281 59.7134C121.412 59.7134 121.537 59.7657 121.63 59.8589C121.722 59.9521 121.774 60.0785 121.774 60.2103V66.7099C121.774 66.8416 121.722 66.968 121.63 67.0612C121.537 67.1544 121.412 67.2068 121.281 67.2068Z" fill="#0099AB"/>
<path d="M125.308 67.2068C125.178 67.2068 125.052 67.1544 124.96 67.0612C124.867 66.968 124.815 66.8416 124.815 66.7099V60.2103C124.815 60.0785 124.867 59.9521 124.96 59.8589C125.052 59.7657 125.178 59.7134 125.308 59.7134C125.439 59.7134 125.564 59.7657 125.657 59.8589C125.749 59.9521 125.801 60.0785 125.801 60.2103V66.7099C125.801 66.8416 125.749 66.968 125.657 67.0612C125.564 67.1544 125.439 67.2068 125.308 67.2068Z" fill="#0099AB"/>
<path d="M129.336 67.2068C129.205 67.2068 129.08 67.1544 128.987 67.0612C128.895 66.968 128.843 66.8416 128.843 66.7099V60.2103C128.843 60.0785 128.895 59.9521 128.987 59.8589C129.08 59.7657 129.205 59.7134 129.336 59.7134C129.466 59.7134 129.592 59.7657 129.684 59.8589C129.777 59.9521 129.829 60.0785 129.829 60.2103V66.7099C129.829 66.8416 129.777 66.968 129.684 67.0612C129.592 67.1544 129.466 67.2068 129.336 67.2068Z" fill="#0099AB"/>
<path d="M133.368 67.2068C133.237 67.2068 133.112 67.1544 133.019 67.0612C132.927 66.968 132.875 66.8416 132.875 66.7099V60.2103C132.875 60.0785 132.927 59.9521 133.019 59.8589C133.112 59.7657 133.237 59.7134 133.368 59.7134C133.499 59.7134 133.624 59.7657 133.716 59.8589C133.809 59.9521 133.861 60.0785 133.861 60.2103V66.7099C133.861 66.8416 133.809 66.968 133.716 67.0612C133.624 67.1544 133.499 67.2068 133.368 67.2068Z" fill="#0099AB"/>
<path d="M165.751 57.1644H137.547V69.7561H165.751V57.1644Z" fill="white"/>
<path d="M165.752 70.253H137.548C137.417 70.253 137.292 70.2006 137.199 70.1074C137.107 70.0142 137.055 69.8878 137.055 69.7561V57.1495C137.055 57.0177 137.107 56.8913 137.199 56.7981C137.292 56.7049 137.417 56.6526 137.548 56.6526H165.752C165.883 56.6526 166.008 56.7049 166.101 56.7981C166.193 56.8913 166.245 57.0177 166.245 57.1495V69.7412C166.247 69.8077 166.236 69.8739 166.212 69.9359C166.188 69.9979 166.152 70.0545 166.106 70.1022C166.06 70.1499 166.005 70.1879 165.944 70.2138C165.883 70.2397 165.818 70.253 165.752 70.253ZM138.041 69.2592H165.259V57.6464H138.041V69.2592Z" fill="#0099AB"/>
<path d="M141.579 67.2068C141.448 67.2068 141.323 67.1544 141.23 67.0612C141.138 66.968 141.086 66.8416 141.086 66.7099V60.2103C141.086 60.0785 141.138 59.9521 141.23 59.8589C141.323 59.7657 141.448 59.7134 141.579 59.7134C141.71 59.7134 141.835 59.7657 141.927 59.8589C142.02 59.9521 142.072 60.0785 142.072 60.2103V66.7099C142.072 66.8416 142.02 66.968 141.927 67.0612C141.835 67.1544 141.71 67.2068 141.579 67.2068Z" fill="#0099AB"/>
<path d="M145.608 67.2068C145.477 67.2068 145.352 67.1544 145.26 67.0612C145.167 66.968 145.115 66.8416 145.115 66.7099V60.2103C145.115 60.0785 145.167 59.9521 145.26 59.8589C145.352 59.7657 145.477 59.7134 145.608 59.7134C145.739 59.7134 145.864 59.7657 145.957 59.8589C146.049 59.9521 146.101 60.0785 146.101 60.2103V66.7099C146.101 66.8416 146.049 66.968 145.957 67.0612C145.864 67.1544 145.739 67.2068 145.608 67.2068Z" fill="#0099AB"/>
<path d="M149.633 67.2068C149.502 67.2068 149.376 67.1544 149.284 67.0612C149.192 66.968 149.14 66.8416 149.14 66.7099V60.2103C149.14 60.0785 149.192 59.9521 149.284 59.8589C149.376 59.7657 149.502 59.7134 149.633 59.7134C149.763 59.7134 149.889 59.7657 149.981 59.8589C150.074 59.9521 150.125 60.0785 150.125 60.2103V66.7099C150.125 66.8416 150.074 66.968 149.981 67.0612C149.889 67.1544 149.763 67.2068 149.633 67.2068Z" fill="#0099AB"/>
<path d="M153.665 67.2068C153.534 67.2068 153.409 67.1544 153.316 67.0612C153.224 66.968 153.172 66.8416 153.172 66.7099V60.2103C153.172 60.0785 153.224 59.9521 153.316 59.8589C153.409 59.7657 153.534 59.7134 153.665 59.7134C153.796 59.7134 153.921 59.7657 154.013 59.8589C154.106 59.9521 154.158 60.0785 154.158 60.2103V66.7099C154.158 66.8416 154.106 66.968 154.013 67.0612C153.921 67.1544 153.796 67.2068 153.665 67.2068Z" fill="#0099AB"/>
<path d="M157.691 67.2068C157.56 67.2068 157.435 67.1544 157.343 67.0612C157.25 66.968 157.198 66.8416 157.198 66.7099V60.2103C157.198 60.0785 157.25 59.9521 157.343 59.8589C157.435 59.7657 157.56 59.7134 157.691 59.7134C157.822 59.7134 157.947 59.7657 158.04 59.8589C158.132 59.9521 158.184 60.0785 158.184 60.2103V66.7099C158.184 66.8416 158.132 66.968 158.04 67.0612C157.947 67.1544 157.822 67.2068 157.691 67.2068Z" fill="#0099AB"/>
<path d="M161.723 67.2068C161.593 67.2068 161.467 67.1544 161.375 67.0612C161.282 66.968 161.23 66.8416 161.23 66.7099V60.2103C161.23 60.0785 161.282 59.9521 161.375 59.8589C161.467 59.7657 161.593 59.7134 161.723 59.7134C161.854 59.7134 161.979 59.7657 162.072 59.8589C162.164 59.9521 162.216 60.0785 162.216 60.2103V66.7099C162.216 66.8416 162.164 66.968 162.072 67.0612C161.979 67.1544 161.854 67.2068 161.723 67.2068Z" fill="#0099AB"/>
<path d="M194.107 57.1644H165.902V69.7561H194.107V57.1644Z" fill="white"/>
<path d="M194.11 70.253H165.905C165.774 70.253 165.649 70.2006 165.556 70.1074C165.464 70.0142 165.412 69.8878 165.412 69.7561V57.1495C165.412 57.0177 165.464 56.8913 165.556 56.7981C165.649 56.7049 165.774 56.6526 165.905 56.6526H194.11C194.24 56.6526 194.366 56.7049 194.458 56.7981C194.551 56.8913 194.602 57.0177 194.602 57.1495V69.7412C194.604 69.8077 194.593 69.8739 194.569 69.9359C194.545 69.9979 194.509 70.0545 194.463 70.1022C194.417 70.1499 194.362 70.1879 194.302 70.2138C194.241 70.2397 194.176 70.253 194.11 70.253ZM166.398 69.2592H193.617V57.6464H166.398V69.2592Z" fill="#0099AB"/>
<path d="M169.931 67.2068C169.801 67.2068 169.675 67.1544 169.583 67.0612C169.49 66.968 169.438 66.8416 169.438 66.7099V60.2103C169.438 60.0785 169.49 59.9521 169.583 59.8589C169.675 59.7657 169.801 59.7134 169.931 59.7134C170.062 59.7134 170.187 59.7657 170.28 59.8589C170.372 59.9521 170.424 60.0785 170.424 60.2103V66.7099C170.424 66.8416 170.372 66.968 170.28 67.0612C170.187 67.1544 170.062 67.2068 169.931 67.2068Z" fill="#0099AB"/>
<path d="M173.964 67.2068C173.833 67.2068 173.708 67.1544 173.615 67.0612C173.523 66.968 173.471 66.8416 173.471 66.7099V60.2103C173.471 60.0785 173.523 59.9521 173.615 59.8589C173.708 59.7657 173.833 59.7134 173.964 59.7134C174.094 59.7134 174.22 59.7657 174.312 59.8589C174.405 59.9521 174.457 60.0785 174.457 60.2103V66.7099C174.457 66.8416 174.405 66.968 174.312 67.0612C174.22 67.1544 174.094 67.2068 173.964 67.2068Z" fill="#0099AB"/>
<path d="M177.99 67.2068C177.859 67.2068 177.734 67.1544 177.641 67.0612C177.549 66.968 177.497 66.8416 177.497 66.7099V60.2103C177.497 60.0785 177.549 59.9521 177.641 59.8589C177.734 59.7657 177.859 59.7134 177.99 59.7134C178.121 59.7134 178.246 59.7657 178.339 59.8589C178.431 59.9521 178.483 60.0785 178.483 60.2103V66.7099C178.483 66.8416 178.431 66.968 178.339 67.0612C178.246 67.1544 178.121 67.2068 177.99 67.2068Z" fill="#0099AB"/>
<path d="M182.02 67.2068C181.89 67.2068 181.764 67.1544 181.672 67.0612C181.579 66.968 181.527 66.8416 181.527 66.7099V60.2103C181.527 60.0785 181.579 59.9521 181.672 59.8589C181.764 59.7657 181.89 59.7134 182.02 59.7134C182.151 59.7134 182.276 59.7657 182.369 59.8589C182.461 59.9521 182.513 60.0785 182.513 60.2103V66.7099C182.513 66.8416 182.461 66.968 182.369 67.0612C182.276 67.1544 182.151 67.2068 182.02 67.2068Z" fill="#0099AB"/>
<path d="M186.049 67.2068C185.918 67.2068 185.792 67.1544 185.7 67.0612C185.608 66.968 185.556 66.8416 185.556 66.7099V60.2103C185.556 60.0785 185.608 59.9521 185.7 59.8589C185.792 59.7657 185.918 59.7134 186.049 59.7134C186.179 59.7134 186.305 59.7657 186.397 59.8589C186.49 59.9521 186.541 60.0785 186.541 60.2103V66.7099C186.541 66.8416 186.49 66.968 186.397 67.0612C186.305 67.1544 186.179 67.2068 186.049 67.2068Z" fill="#0099AB"/>
<path d="M190.076 67.2068C189.945 67.2068 189.82 67.1544 189.727 67.0612C189.635 66.968 189.583 66.8416 189.583 66.7099V60.2103C189.583 60.0785 189.635 59.9521 189.727 59.8589C189.82 59.7657 189.945 59.7134 190.076 59.7134C190.207 59.7134 190.332 59.7657 190.424 59.8589C190.517 59.9521 190.569 60.0785 190.569 60.2103V66.7099C190.569 66.8416 190.517 66.968 190.424 67.0612C190.332 67.1544 190.207 67.2068 190.076 67.2068Z" fill="#0099AB"/>
<path d="M222.466 57.1644H194.262V69.7561H222.466V57.1644Z" fill="white"/>
<path d="M222.468 70.253H194.263C194.133 70.253 194.007 70.2006 193.915 70.1074C193.822 70.0142 193.771 69.8878 193.771 69.7561V57.1495C193.771 57.0177 193.822 56.8913 193.915 56.7981C194.007 56.7049 194.133 56.6526 194.263 56.6526H222.468C222.599 56.6526 222.724 56.7049 222.816 56.7981C222.909 56.8913 222.961 57.0177 222.961 57.1495V69.7412C222.963 69.8077 222.952 69.8739 222.928 69.9359C222.904 69.9979 222.868 70.0545 222.822 70.1022C222.776 70.1499 222.721 70.1879 222.66 70.2138C222.599 70.2397 222.534 70.253 222.468 70.253ZM194.756 69.2592H221.975V57.6464H194.756V69.2592Z" fill="#0099AB"/>
<path d="M198.289 67.2068C198.158 67.2068 198.033 67.1544 197.94 67.0612C197.848 66.968 197.796 66.8416 197.796 66.7099V60.2103C197.796 60.0785 197.848 59.9521 197.94 59.8589C198.033 59.7657 198.158 59.7134 198.289 59.7134C198.42 59.7134 198.545 59.7657 198.637 59.8589C198.73 59.9521 198.782 60.0785 198.782 60.2103V66.7099C198.782 66.8416 198.73 66.968 198.637 67.0612C198.545 67.1544 198.42 67.2068 198.289 67.2068Z" fill="#0099AB"/>
<path d="M202.32 67.2068C202.189 67.2068 202.064 67.1544 201.972 67.0612C201.879 66.968 201.827 66.8416 201.827 66.7099V60.2103C201.827 60.0785 201.879 59.9521 201.972 59.8589C202.064 59.7657 202.189 59.7134 202.32 59.7134C202.451 59.7134 202.576 59.7657 202.669 59.8589C202.761 59.9521 202.813 60.0785 202.813 60.2103V66.7099C202.813 66.8416 202.761 66.968 202.669 67.0612C202.576 67.1544 202.451 67.2068 202.32 67.2068Z" fill="#0099AB"/>
<path d="M206.347 67.2068C206.217 67.2068 206.091 67.1544 205.999 67.0612C205.906 66.968 205.854 66.8416 205.854 66.7099V60.2103C205.854 60.0785 205.906 59.9521 205.999 59.8589C206.091 59.7657 206.217 59.7134 206.347 59.7134C206.478 59.7134 206.604 59.7657 206.696 59.8589C206.788 59.9521 206.84 60.0785 206.84 60.2103V66.7099C206.84 66.8416 206.788 66.968 206.696 67.0612C206.604 67.1544 206.478 67.2068 206.347 67.2068Z" fill="#0099AB"/>
<path d="M210.376 67.2068C210.245 67.2068 210.12 67.1544 210.027 67.0612C209.935 66.968 209.883 66.8416 209.883 66.7099V60.2103C209.883 60.0785 209.935 59.9521 210.027 59.8589C210.12 59.7657 210.245 59.7134 210.376 59.7134C210.506 59.7134 210.632 59.7657 210.724 59.8589C210.817 59.9521 210.869 60.0785 210.869 60.2103V66.7099C210.869 66.8416 210.817 66.968 210.724 67.0612C210.632 67.1544 210.506 67.2068 210.376 67.2068Z" fill="#0099AB"/>
<path d="M214.418 67.2068C214.287 67.2068 214.162 67.1544 214.069 67.0612C213.977 66.968 213.925 66.8416 213.925 66.7099V60.2103C213.925 60.0785 213.977 59.9521 214.069 59.8589C214.162 59.7657 214.287 59.7134 214.418 59.7134C214.548 59.7134 214.674 59.7657 214.766 59.8589C214.859 59.9521 214.911 60.0785 214.911 60.2103V66.7099C214.911 66.8416 214.859 66.968 214.766 67.0612C214.674 67.1544 214.548 67.2068 214.418 67.2068Z" fill="#0099AB"/>
<path d="M218.433 67.2068C218.303 67.2068 218.177 67.1544 218.085 67.0612C217.992 66.968 217.94 66.8416 217.94 66.7099V60.2103C217.94 60.0785 217.992 59.9521 218.085 59.8589C218.177 59.7657 218.303 59.7134 218.433 59.7134C218.564 59.7134 218.689 59.7657 218.782 59.8589C218.874 59.9521 218.926 60.0785 218.926 60.2103V66.7099C218.926 66.8416 218.874 66.968 218.782 67.0612C218.689 67.1544 218.564 67.2068 218.433 67.2068Z" fill="#0099AB"/>
<path d="M336.566 81.8358H308.361V94.4275H336.566V81.8358Z" fill="white"/>
<path d="M336.566 94.9145H308.361C308.23 94.9145 308.105 94.8622 308.013 94.769C307.92 94.6758 307.868 94.5494 307.868 94.4176V81.8359C307.868 81.7041 307.92 81.5777 308.013 81.4845C308.105 81.3913 308.23 81.339 308.361 81.339H336.566C336.696 81.339 336.822 81.3913 336.914 81.4845C337.007 81.5777 337.058 81.7041 337.058 81.8359V94.4176C337.058 94.5494 337.007 94.6758 336.914 94.769C336.822 94.8622 336.696 94.9145 336.566 94.9145ZM308.854 93.9207H336.073V82.3328H308.854V93.9207Z" fill="#0099AB"/>
<path d="M312.39 91.8784C312.26 91.8784 312.134 91.826 312.042 91.7329C311.949 91.6397 311.897 91.5133 311.897 91.3815V84.8819C311.897 84.7501 311.949 84.6237 312.042 84.5306C312.134 84.4374 312.26 84.385 312.39 84.385C312.521 84.385 312.646 84.4374 312.739 84.5306C312.831 84.6237 312.883 84.7501 312.883 84.8819V91.3815C312.883 91.5133 312.831 91.6397 312.739 91.7329C312.646 91.826 312.521 91.8784 312.39 91.8784Z" fill="#0099AB"/>
<path d="M316.422 91.8784C316.291 91.8784 316.166 91.826 316.073 91.7329C315.981 91.6397 315.929 91.5133 315.929 91.3815V84.8819C315.929 84.7501 315.981 84.6237 316.073 84.5306C316.166 84.4374 316.291 84.385 316.422 84.385C316.552 84.385 316.678 84.4374 316.77 84.5306C316.863 84.6237 316.915 84.7501 316.915 84.8819V91.3815C316.915 91.5133 316.863 91.6397 316.77 91.7329C316.678 91.826 316.552 91.8784 316.422 91.8784Z" fill="#0099AB"/>
<path d="M320.449 91.8784C320.318 91.8784 320.193 91.826 320.1 91.7329C320.008 91.6397 319.956 91.5133 319.956 91.3815V84.8819C319.956 84.7501 320.008 84.6237 320.1 84.5306C320.193 84.4374 320.318 84.385 320.449 84.385C320.58 84.385 320.705 84.4374 320.797 84.5306C320.89 84.6237 320.942 84.7501 320.942 84.8819V91.3815C320.942 91.5133 320.89 91.6397 320.797 91.7329C320.705 91.826 320.58 91.8784 320.449 91.8784Z" fill="#0099AB"/>
<path d="M324.479 91.8784C324.349 91.8784 324.223 91.826 324.131 91.7329C324.038 91.6397 323.986 91.5133 323.986 91.3815V84.8819C323.986 84.7501 324.038 84.6237 324.131 84.5306C324.223 84.4374 324.349 84.385 324.479 84.385C324.61 84.385 324.735 84.4374 324.828 84.5306C324.92 84.6237 324.972 84.7501 324.972 84.8819V91.3815C324.972 91.5133 324.92 91.6397 324.828 91.7329C324.735 91.826 324.61 91.8784 324.479 91.8784Z" fill="#0099AB"/>
<path d="M328.507 91.8784C328.376 91.8784 328.25 91.826 328.158 91.7329C328.066 91.6397 328.014 91.5133 328.014 91.3815V84.8819C328.014 84.7501 328.066 84.6237 328.158 84.5306C328.25 84.4374 328.376 84.385 328.507 84.385C328.637 84.385 328.763 84.4374 328.855 84.5306C328.948 84.6237 328.999 84.7501 328.999 84.8819V91.3815C328.999 91.5133 328.948 91.6397 328.855 91.7329C328.763 91.826 328.637 91.8784 328.507 91.8784Z" fill="#0099AB"/>
<path d="M332.536 91.8784C332.405 91.8784 332.28 91.826 332.187 91.7329C332.095 91.6397 332.043 91.5133 332.043 91.3815V84.8819C332.043 84.7501 332.095 84.6237 332.187 84.5306C332.28 84.4374 332.405 84.385 332.536 84.385C332.667 84.385 332.792 84.4374 332.884 84.5306C332.977 84.6237 333.029 84.7501 333.029 84.8819V91.3815C333.029 91.5133 332.977 91.6397 332.884 91.7329C332.792 91.826 332.667 91.8784 332.536 91.8784Z" fill="#0099AB"/>
<path d="M308.209 81.8358H280.005V94.4275H308.209V81.8358Z" fill="white"/>
<path d="M308.21 94.9145H280.006C279.875 94.9145 279.75 94.8622 279.657 94.769C279.565 94.6758 279.513 94.5494 279.513 94.4176V81.8359C279.513 81.7041 279.565 81.5777 279.657 81.4845C279.75 81.3913 279.875 81.339 280.006 81.339H308.21C308.341 81.339 308.466 81.3913 308.559 81.4845C308.651 81.5777 308.703 81.7041 308.703 81.8359V94.4176C308.703 94.5494 308.651 94.6758 308.559 94.769C308.466 94.8622 308.341 94.9145 308.21 94.9145ZM280.499 93.9207H307.717V82.3328H280.499V93.9207Z" fill="#0099AB"/>
<path d="M284.038 91.8784C283.907 91.8784 283.782 91.826 283.689 91.7329C283.597 91.6397 283.545 91.5133 283.545 91.3815V84.8819C283.545 84.7501 283.597 84.6237 283.689 84.5306C283.782 84.4374 283.907 84.385 284.038 84.385C284.169 84.385 284.294 84.4374 284.386 84.5306C284.479 84.6237 284.531 84.7501 284.531 84.8819V91.3815C284.531 91.5133 284.479 91.6397 284.386 91.7329C284.294 91.826 284.169 91.8784 284.038 91.8784Z" fill="#0099AB"/>
<path d="M288.064 91.8784C287.933 91.8784 287.808 91.826 287.716 91.7329C287.623 91.6397 287.571 91.5133 287.571 91.3815V84.8819C287.571 84.7501 287.623 84.6237 287.716 84.5306C287.808 84.4374 287.933 84.385 288.064 84.385C288.195 84.385 288.32 84.4374 288.413 84.5306C288.505 84.6237 288.557 84.7501 288.557 84.8819V91.3815C288.557 91.5133 288.505 91.6397 288.413 91.7329C288.32 91.826 288.195 91.8784 288.064 91.8784Z" fill="#0099AB"/>
<path d="M292.092 91.8784C291.961 91.8784 291.835 91.826 291.743 91.7329C291.651 91.6397 291.599 91.5133 291.599 91.3815V84.8819C291.599 84.7501 291.651 84.6237 291.743 84.5306C291.835 84.4374 291.961 84.385 292.092 84.385C292.222 84.385 292.348 84.4374 292.44 84.5306C292.533 84.6237 292.584 84.7501 292.584 84.8819V91.3815C292.584 91.5133 292.533 91.6397 292.44 91.7329C292.348 91.826 292.222 91.8784 292.092 91.8784Z" fill="#0099AB"/>
<path d="M296.123 91.8784C295.992 91.8784 295.867 91.826 295.774 91.7329C295.682 91.6397 295.63 91.5133 295.63 91.3815V84.8819C295.63 84.7501 295.682 84.6237 295.774 84.5306C295.867 84.4374 295.992 84.385 296.123 84.385C296.254 84.385 296.379 84.4374 296.471 84.5306C296.564 84.6237 296.616 84.7501 296.616 84.8819V91.3815C296.616 91.5133 296.564 91.6397 296.471 91.7329C296.379 91.826 296.254 91.8784 296.123 91.8784Z" fill="#0099AB"/>
<path d="M300.151 91.8784C300.02 91.8784 299.895 91.826 299.803 91.7329C299.71 91.6397 299.658 91.5133 299.658 91.3815V84.8819C299.658 84.7501 299.71 84.6237 299.803 84.5306C299.895 84.4374 300.02 84.385 300.151 84.385C300.282 84.385 300.407 84.4374 300.5 84.5306C300.592 84.6237 300.644 84.7501 300.644 84.8819V91.3815C300.644 91.5133 300.592 91.6397 300.5 91.7329C300.407 91.826 300.282 91.8784 300.151 91.8784Z" fill="#0099AB"/>
<path d="M304.181 91.8784C304.051 91.8784 303.925 91.826 303.833 91.7329C303.74 91.6397 303.688 91.5133 303.688 91.3815V84.8819C303.688 84.7501 303.74 84.6237 303.833 84.5306C303.925 84.4374 304.051 84.385 304.181 84.385C304.312 84.385 304.437 84.4374 304.53 84.5306C304.622 84.6237 304.674 84.7501 304.674 84.8819V91.3815C304.674 91.5133 304.622 91.6397 304.53 91.7329C304.437 91.826 304.312 91.8784 304.181 91.8784Z" fill="#0099AB"/>
<path d="M279.85 81.8358H251.646V94.4275H279.85V81.8358Z" fill="white"/>
<path d="M279.852 94.9145H251.647C251.516 94.9145 251.391 94.8622 251.299 94.769C251.206 94.6758 251.154 94.5494 251.154 94.4176V81.8359C251.154 81.7041 251.206 81.5777 251.299 81.4845C251.391 81.3913 251.516 81.339 251.647 81.339H279.852C279.982 81.339 280.108 81.3913 280.2 81.4845C280.293 81.5777 280.345 81.7041 280.345 81.8359V94.4176C280.345 94.5494 280.293 94.6758 280.2 94.769C280.108 94.8622 279.982 94.9145 279.852 94.9145ZM252.14 93.9207H279.359V82.3328H252.14V93.9207Z" fill="#0099AB"/>
<path d="M255.68 91.8784C255.55 91.8784 255.424 91.826 255.332 91.7329C255.239 91.6397 255.188 91.5133 255.188 91.3815V84.8819C255.188 84.7501 255.239 84.6237 255.332 84.5306C255.424 84.4374 255.55 84.385 255.68 84.385C255.811 84.385 255.936 84.4374 256.029 84.5306C256.121 84.6237 256.173 84.7501 256.173 84.8819V91.3815C256.173 91.5133 256.121 91.6397 256.029 91.7329C255.936 91.826 255.811 91.8784 255.68 91.8784Z" fill="#0099AB"/>
<path d="M259.708 91.8784C259.577 91.8784 259.452 91.826 259.359 91.7329C259.267 91.6397 259.215 91.5133 259.215 91.3815V84.8819C259.215 84.7501 259.267 84.6237 259.359 84.5306C259.452 84.4374 259.577 84.385 259.708 84.385C259.838 84.385 259.964 84.4374 260.056 84.5306C260.149 84.6237 260.201 84.7501 260.201 84.8819V91.3815C260.201 91.5133 260.149 91.6397 260.056 91.7329C259.964 91.826 259.838 91.8784 259.708 91.8784Z" fill="#0099AB"/>
<path d="M263.737 91.8784C263.606 91.8784 263.481 91.826 263.389 91.7329C263.296 91.6397 263.244 91.5133 263.244 91.3815V84.8819C263.244 84.7501 263.296 84.6237 263.389 84.5306C263.481 84.4374 263.606 84.385 263.737 84.385C263.868 84.385 263.993 84.4374 264.086 84.5306C264.178 84.6237 264.23 84.7501 264.23 84.8819V91.3815C264.23 91.5133 264.178 91.6397 264.086 91.7329C263.993 91.826 263.868 91.8784 263.737 91.8784Z" fill="#0099AB"/>
<path d="M267.764 91.8784C267.634 91.8784 267.508 91.826 267.416 91.7329C267.323 91.6397 267.271 91.5133 267.271 91.3815V84.8819C267.271 84.7501 267.323 84.6237 267.416 84.5306C267.508 84.4374 267.634 84.385 267.764 84.385C267.895 84.385 268.021 84.4374 268.113 84.5306C268.205 84.6237 268.257 84.7501 268.257 84.8819V91.3815C268.257 91.5133 268.205 91.6397 268.113 91.7329C268.021 91.826 267.895 91.8784 267.764 91.8784Z" fill="#0099AB"/>
<path d="M271.792 91.8784C271.661 91.8784 271.536 91.826 271.443 91.7329C271.351 91.6397 271.299 91.5133 271.299 91.3815V84.8819C271.299 84.7501 271.351 84.6237 271.443 84.5306C271.536 84.4374 271.661 84.385 271.792 84.385C271.922 84.385 272.048 84.4374 272.14 84.5306C272.233 84.6237 272.285 84.7501 272.285 84.8819V91.3815C272.285 91.5133 272.233 91.6397 272.14 91.7329C272.048 91.826 271.922 91.8784 271.792 91.8784Z" fill="#0099AB"/>
<path d="M275.825 91.8784C275.694 91.8784 275.569 91.826 275.476 91.7329C275.384 91.6397 275.332 91.5133 275.332 91.3815V84.8819C275.332 84.7501 275.384 84.6237 275.476 84.5306C275.569 84.4374 275.694 84.385 275.825 84.385C275.956 84.385 276.081 84.4374 276.173 84.5306C276.266 84.6237 276.318 84.7501 276.318 84.8819V91.3815C276.318 91.5133 276.266 91.6397 276.173 91.7329C276.081 91.826 275.956 91.8784 275.825 91.8784Z" fill="#0099AB"/>
<path d="M336.566 69.587H308.361V82.1787H336.566V69.587Z" fill="white"/>
<path d="M336.566 82.6756H308.361C308.23 82.6756 308.105 82.6232 308.013 82.53C307.92 82.4369 307.868 82.3105 307.868 82.1787V69.5721C307.868 69.4403 307.92 69.3139 308.013 69.2207C308.105 69.1275 308.23 69.0752 308.361 69.0752H336.566C336.696 69.0752 336.822 69.1275 336.914 69.2207C337.007 69.3139 337.058 69.4403 337.058 69.5721V82.1638C337.06 82.2303 337.049 82.2965 337.025 82.3585C337.001 82.4205 336.965 82.4771 336.919 82.5248C336.873 82.5725 336.818 82.6105 336.758 82.6364C336.697 82.6623 336.632 82.6756 336.566 82.6756ZM308.854 81.6818H336.073V70.069H308.854V81.6818Z" fill="#0099AB"/>
<path d="M312.39 79.6295C312.26 79.6295 312.134 79.5771 312.042 79.4839C311.949 79.3908 311.897 79.2644 311.897 79.1326V72.633C311.897 72.5012 311.949 72.3748 312.042 72.2816C312.134 72.1885 312.26 72.1361 312.39 72.1361C312.521 72.1361 312.646 72.1885 312.739 72.2816C312.831 72.3748 312.883 72.5012 312.883 72.633V79.1326C312.883 79.2644 312.831 79.3908 312.739 79.4839C312.646 79.5771 312.521 79.6295 312.39 79.6295Z" fill="#0099AB"/>
<path d="M316.422 79.6295C316.291 79.6295 316.166 79.5771 316.073 79.4839C315.981 79.3908 315.929 79.2644 315.929 79.1326V72.633C315.929 72.5012 315.981 72.3748 316.073 72.2816C316.166 72.1885 316.291 72.1361 316.422 72.1361C316.552 72.1361 316.678 72.1885 316.77 72.2816C316.863 72.3748 316.915 72.5012 316.915 72.633V79.1326C316.915 79.2644 316.863 79.3908 316.77 79.4839C316.678 79.5771 316.552 79.6295 316.422 79.6295Z" fill="#0099AB"/>
<path d="M320.449 79.6295C320.318 79.6295 320.193 79.5771 320.1 79.4839C320.008 79.3908 319.956 79.2644 319.956 79.1326V72.633C319.956 72.5012 320.008 72.3748 320.1 72.2816C320.193 72.1885 320.318 72.1361 320.449 72.1361C320.58 72.1361 320.705 72.1885 320.797 72.2816C320.89 72.3748 320.942 72.5012 320.942 72.633V79.1326C320.942 79.2644 320.89 79.3908 320.797 79.4839C320.705 79.5771 320.58 79.6295 320.449 79.6295Z" fill="#0099AB"/>
<path d="M324.479 79.6295C324.349 79.6295 324.223 79.5771 324.131 79.4839C324.038 79.3908 323.986 79.2644 323.986 79.1326V72.633C323.986 72.5012 324.038 72.3748 324.131 72.2816C324.223 72.1885 324.349 72.1361 324.479 72.1361C324.61 72.1361 324.735 72.1885 324.828 72.2816C324.92 72.3748 324.972 72.5012 324.972 72.633V79.1326C324.972 79.2644 324.92 79.3908 324.828 79.4839C324.735 79.5771 324.61 79.6295 324.479 79.6295Z" fill="#0099AB"/>
<path d="M328.507 79.6295C328.376 79.6295 328.25 79.5771 328.158 79.4839C328.066 79.3908 328.014 79.2644 328.014 79.1326V72.633C328.014 72.5012 328.066 72.3748 328.158 72.2816C328.25 72.1885 328.376 72.1361 328.507 72.1361C328.637 72.1361 328.763 72.1885 328.855 72.2816C328.948 72.3748 328.999 72.5012 328.999 72.633V79.1326C328.999 79.2644 328.948 79.3908 328.855 79.4839C328.763 79.5771 328.637 79.6295 328.507 79.6295Z" fill="#0099AB"/>
<path d="M332.536 79.6295C332.405 79.6295 332.28 79.5771 332.187 79.4839C332.095 79.3908 332.043 79.2644 332.043 79.1326V72.633C332.043 72.5012 332.095 72.3748 332.187 72.2816C332.28 72.1885 332.405 72.1361 332.536 72.1361C332.667 72.1361 332.792 72.1885 332.884 72.2816C332.977 72.3748 333.029 72.5012 333.029 72.633V79.1326C333.029 79.2644 332.977 79.3908 332.884 79.4839C332.792 79.5771 332.667 79.6295 332.536 79.6295Z" fill="#0099AB"/>
<path d="M308.209 69.587H280.005V82.1787H308.209V69.587Z" fill="white"/>
<path d="M308.21 82.6756H280.006C279.875 82.6756 279.75 82.6232 279.657 82.53C279.565 82.4369 279.513 82.3105 279.513 82.1787V69.5721C279.513 69.4403 279.565 69.3139 279.657 69.2207C279.75 69.1275 279.875 69.0752 280.006 69.0752H308.21C308.341 69.0752 308.466 69.1275 308.559 69.2207C308.651 69.3139 308.703 69.4403 308.703 69.5721V82.1638C308.705 82.2303 308.694 82.2965 308.67 82.3585C308.646 82.4205 308.61 82.4771 308.564 82.5248C308.518 82.5725 308.463 82.6105 308.402 82.6364C308.341 82.6623 308.276 82.6756 308.21 82.6756ZM280.499 81.6818H307.717V70.069H280.499V81.6818Z" fill="#0099AB"/>
<path d="M284.038 79.6295C283.907 79.6295 283.782 79.5771 283.689 79.4839C283.597 79.3908 283.545 79.2644 283.545 79.1326V72.633C283.545 72.5012 283.597 72.3748 283.689 72.2816C283.782 72.1885 283.907 72.1361 284.038 72.1361C284.169 72.1361 284.294 72.1885 284.386 72.2816C284.479 72.3748 284.531 72.5012 284.531 72.633V79.1326C284.531 79.2644 284.479 79.3908 284.386 79.4839C284.294 79.5771 284.169 79.6295 284.038 79.6295Z" fill="#0099AB"/>
<path d="M288.064 79.6295C287.933 79.6295 287.808 79.5771 287.716 79.4839C287.623 79.3908 287.571 79.2644 287.571 79.1326V72.633C287.571 72.5012 287.623 72.3748 287.716 72.2816C287.808 72.1885 287.933 72.1361 288.064 72.1361C288.195 72.1361 288.32 72.1885 288.413 72.2816C288.505 72.3748 288.557 72.5012 288.557 72.633V79.1326C288.557 79.2644 288.505 79.3908 288.413 79.4839C288.32 79.5771 288.195 79.6295 288.064 79.6295Z" fill="#0099AB"/>
<path d="M292.092 79.6295C291.961 79.6295 291.835 79.5771 291.743 79.4839C291.651 79.3908 291.599 79.2644 291.599 79.1326V72.633C291.599 72.5012 291.651 72.3748 291.743 72.2816C291.835 72.1885 291.961 72.1361 292.092 72.1361C292.222 72.1361 292.348 72.1885 292.44 72.2816C292.533 72.3748 292.584 72.5012 292.584 72.633V79.1326C292.584 79.2644 292.533 79.3908 292.44 79.4839C292.348 79.5771 292.222 79.6295 292.092 79.6295Z" fill="#0099AB"/>
<path d="M296.123 79.6295C295.992 79.6295 295.867 79.5771 295.774 79.4839C295.682 79.3908 295.63 79.2644 295.63 79.1326V72.633C295.63 72.5012 295.682 72.3748 295.774 72.2816C295.867 72.1885 295.992 72.1361 296.123 72.1361C296.254 72.1361 296.379 72.1885 296.471 72.2816C296.564 72.3748 296.616 72.5012 296.616 72.633V79.1326C296.616 79.2644 296.564 79.3908 296.471 79.4839C296.379 79.5771 296.254 79.6295 296.123 79.6295Z" fill="#0099AB"/>
<path d="M300.151 79.6295C300.02 79.6295 299.895 79.5771 299.803 79.4839C299.71 79.3908 299.658 79.2644 299.658 79.1326V72.633C299.658 72.5012 299.71 72.3748 299.803 72.2816C299.895 72.1885 300.02 72.1361 300.151 72.1361C300.282 72.1361 300.407 72.1885 300.5 72.2816C300.592 72.3748 300.644 72.5012 300.644 72.633V79.1326C300.644 79.2644 300.592 79.3908 300.5 79.4839C300.407 79.5771 300.282 79.6295 300.151 79.6295Z" fill="#0099AB"/>
<path d="M304.181 79.6295C304.051 79.6295 303.925 79.5771 303.833 79.4839C303.74 79.3908 303.688 79.2644 303.688 79.1326V72.633C303.688 72.5012 303.74 72.3748 303.833 72.2816C303.925 72.1885 304.051 72.1361 304.181 72.1361C304.312 72.1361 304.437 72.1885 304.53 72.2816C304.622 72.3748 304.674 72.5012 304.674 72.633V79.1326C304.674 79.2644 304.622 79.3908 304.53 79.4839C304.437 79.5771 304.312 79.6295 304.181 79.6295Z" fill="#0099AB"/>
<path d="M279.85 69.587H251.646V82.1787H279.85V69.587Z" fill="white"/>
<path d="M279.852 82.6756H251.647C251.516 82.6756 251.391 82.6232 251.299 82.53C251.206 82.4369 251.154 82.3105 251.154 82.1787V69.5721C251.154 69.4403 251.206 69.3139 251.299 69.2207C251.391 69.1275 251.516 69.0752 251.647 69.0752H279.852C279.982 69.0752 280.108 69.1275 280.2 69.2207C280.293 69.3139 280.345 69.4403 280.345 69.5721V82.1638C280.347 82.2303 280.335 82.2965 280.311 82.3585C280.288 82.4205 280.252 82.4771 280.206 82.5248C280.16 82.5725 280.105 82.6105 280.044 82.6364C279.983 82.6623 279.918 82.6756 279.852 82.6756ZM252.14 81.6818H279.359V70.069H252.14V81.6818Z" fill="#0099AB"/>
<path d="M255.68 79.6295C255.55 79.6295 255.424 79.5771 255.332 79.4839C255.239 79.3908 255.188 79.2644 255.188 79.1326V72.633C255.188 72.5012 255.239 72.3748 255.332 72.2816C255.424 72.1885 255.55 72.1361 255.68 72.1361C255.811 72.1361 255.936 72.1885 256.029 72.2816C256.121 72.3748 256.173 72.5012 256.173 72.633V79.1326C256.173 79.2644 256.121 79.3908 256.029 79.4839C255.936 79.5771 255.811 79.6295 255.68 79.6295Z" fill="#0099AB"/>
<path d="M259.708 79.6295C259.577 79.6295 259.452 79.5771 259.359 79.4839C259.267 79.3908 259.215 79.2644 259.215 79.1326V72.633C259.215 72.5012 259.267 72.3748 259.359 72.2816C259.452 72.1885 259.577 72.1361 259.708 72.1361C259.838 72.1361 259.964 72.1885 260.056 72.2816C260.149 72.3748 260.201 72.5012 260.201 72.633V79.1326C260.201 79.2644 260.149 79.3908 260.056 79.4839C259.964 79.5771 259.838 79.6295 259.708 79.6295Z" fill="#0099AB"/>
<path d="M263.737 79.6295C263.606 79.6295 263.481 79.5771 263.389 79.4839C263.296 79.3908 263.244 79.2644 263.244 79.1326V72.633C263.244 72.5012 263.296 72.3748 263.389 72.2816C263.481 72.1885 263.606 72.1361 263.737 72.1361C263.868 72.1361 263.993 72.1885 264.086 72.2816C264.178 72.3748 264.23 72.5012 264.23 72.633V79.1326C264.23 79.2644 264.178 79.3908 264.086 79.4839C263.993 79.5771 263.868 79.6295 263.737 79.6295Z" fill="#0099AB"/>
<path d="M267.764 79.6295C267.634 79.6295 267.508 79.5771 267.416 79.4839C267.323 79.3908 267.271 79.2644 267.271 79.1326V72.633C267.271 72.5012 267.323 72.3748 267.416 72.2816C267.508 72.1885 267.634 72.1361 267.764 72.1361C267.895 72.1361 268.021 72.1885 268.113 72.2816C268.205 72.3748 268.257 72.5012 268.257 72.633V79.1326C268.257 79.2644 268.205 79.3908 268.113 79.4839C268.021 79.5771 267.895 79.6295 267.764 79.6295Z" fill="#0099AB"/>
<path d="M271.792 79.6295C271.661 79.6295 271.536 79.5771 271.443 79.4839C271.351 79.3908 271.299 79.2644 271.299 79.1326V72.633C271.299 72.5012 271.351 72.3748 271.443 72.2816C271.536 72.1885 271.661 72.1361 271.792 72.1361C271.922 72.1361 272.048 72.1885 272.14 72.2816C272.233 72.3748 272.285 72.5012 272.285 72.633V79.1326C272.285 79.2644 272.233 79.3908 272.14 79.4839C272.048 79.5771 271.922 79.6295 271.792 79.6295Z" fill="#0099AB"/>
<path d="M275.825 79.6295C275.694 79.6295 275.569 79.5771 275.476 79.4839C275.384 79.3908 275.332 79.2644 275.332 79.1326V72.633C275.332 72.5012 275.384 72.3748 275.476 72.2816C275.569 72.1885 275.694 72.1361 275.825 72.1361C275.956 72.1361 276.081 72.1885 276.173 72.2816C276.266 72.3748 276.318 72.5012 276.318 72.633V79.1326C276.318 79.2644 276.266 79.3908 276.173 79.4839C276.081 79.5771 275.956 79.6295 275.825 79.6295Z" fill="#0099AB"/>
<path d="M87.5906 76.7327H33.5771V87.6249H87.5906V76.7327Z" fill="white"/>
<path d="M87.5854 88.1167H33.5769C33.4462 88.1167 33.3208 88.0643 33.2284 87.9711C33.1359 87.878 33.084 87.7516 33.084 87.6198V76.7325C33.084 76.6007 33.1359 76.4743 33.2284 76.3811C33.3208 76.2879 33.4462 76.2356 33.5769 76.2356H87.5854C87.7161 76.2356 87.8415 76.2879 87.934 76.3811C88.0264 76.4743 88.0783 76.6007 88.0783 76.7325V87.6198C88.0783 87.7516 88.0264 87.878 87.934 87.9711C87.8415 88.0643 87.7161 88.1167 87.5854 88.1167ZM34.0698 87.1229H87.0925V77.2294H34.0698V87.1229Z" fill="#0099AB"/>
<path d="M87.5857 65.8405H40.3252V76.7327H87.5857V65.8405Z" fill="white"/>
<path d="M87.5855 77.2296H40.3249C40.1942 77.2296 40.0688 77.1772 39.9764 77.084C39.884 76.9908 39.832 76.8644 39.832 76.7327V65.8404C39.832 65.7086 39.884 65.5822 39.9764 65.489C40.0688 65.3959 40.1942 65.3435 40.3249 65.3435H87.5855C87.7162 65.3435 87.8416 65.3959 87.934 65.489C88.0265 65.5822 88.0784 65.7086 88.0784 65.8404V76.7327C88.0784 76.8644 88.0265 76.9908 87.934 77.084C87.8416 77.1772 87.7162 77.2296 87.5855 77.2296ZM40.8179 76.2357H87.0926V66.3373H40.8179V76.2357Z" fill="#0099AB"/>
<path d="M87.5848 54.953H47.0771V65.8452H87.5848V54.953Z" fill="white"/>
<path d="M87.5865 66.3373H47.0789C46.9481 66.3373 46.8227 66.2849 46.7303 66.1917C46.6379 66.0985 46.5859 65.9721 46.5859 65.8403V54.9531C46.5859 54.8213 46.6379 54.6949 46.7303 54.6017C46.8227 54.5085 46.9481 54.4562 47.0789 54.4562H87.5865C87.7172 54.4562 87.8426 54.5085 87.935 54.6017C88.0275 54.6949 88.0794 54.8213 88.0794 54.9531V65.8403C88.0794 65.9721 88.0275 66.0985 87.935 66.1917C87.8426 66.2849 87.7172 66.3373 87.5865 66.3373ZM47.5718 65.3434H87.0936V55.45H47.5718V65.3434Z" fill="#0099AB"/>
<path d="M53.832 44.0609H90.6625C90.7715 44.0615 90.8787 44.0885 90.9751 44.1396C91.0716 44.1906 91.1545 44.2643 91.2168 44.3544C91.2791 44.4445 91.319 44.5484 91.3332 44.6573C91.3474 44.7662 91.3355 44.8769 91.2984 44.9802L87.5867 54.9531H53.832V44.0609Z" fill="white"/>
<path d="M87.5855 55.4499H53.8308C53.7001 55.4499 53.5747 55.3976 53.4823 55.3044C53.3898 55.2112 53.3379 55.0848 53.3379 54.953V44.0608C53.3379 43.929 53.3898 43.8026 53.4823 43.7094C53.5747 43.6162 53.7001 43.5638 53.8308 43.5638H90.6613C90.85 43.5638 91.0358 43.6099 91.203 43.6981C91.3702 43.7863 91.5136 43.914 91.6212 44.0702C91.7287 44.2265 91.7971 44.4067 91.8205 44.5954C91.8439 44.7842 91.8216 44.9758 91.7556 45.1539L88.0489 55.1269C88.0136 55.222 87.9503 55.304 87.8675 55.3617C87.7846 55.4195 87.6862 55.4502 87.5855 55.4499ZM54.3237 54.4561H87.2454L90.8338 44.8061C90.8476 44.7801 90.8548 44.7511 90.8548 44.7216C90.8548 44.6922 90.8476 44.6631 90.8338 44.6372C90.8168 44.6123 90.7939 44.592 90.7673 44.5781C90.7406 44.5642 90.711 44.5572 90.681 44.5577H54.3237V54.4561Z" fill="#0099AB"/>
<path d="M88.8325 52.0463H76.4455C76.1361 52.045 75.8397 51.9205 75.6209 51.6999C75.4021 51.4794 75.2786 51.1806 75.2773 50.8686V48.1456C75.2786 47.8336 75.4021 47.5348 75.6209 47.3143C75.8397 47.0937 76.1361 46.9692 76.4455 46.9679H90.3703C90.5011 46.9679 90.6265 47.0202 90.7189 47.1134C90.8113 47.2066 90.8633 47.333 90.8633 47.4648C90.8633 47.5966 90.8113 47.723 90.7189 47.8162C90.6265 47.9094 90.5011 47.9617 90.3703 47.9617H76.4455C76.3976 47.963 76.3519 47.9827 76.318 48.017C76.284 48.0512 76.2644 48.0972 76.2632 48.1456V50.8686C76.2644 50.917 76.284 50.963 76.318 50.9972C76.3519 51.0315 76.3976 51.0512 76.4455 51.0525H88.8325C88.9632 51.0525 89.0886 51.1048 89.181 51.198C89.2734 51.2912 89.3254 51.4176 89.3254 51.5494C89.3254 51.6812 89.2734 51.8076 89.181 51.9008C89.0886 51.9939 88.9632 52.0463 88.8325 52.0463Z" fill="#0099AB"/>
<path d="M60.3953 46.7839H64.8315C64.9622 46.7839 65.0876 46.8363 65.18 46.9295C65.2725 47.0227 65.3244 47.1491 65.3244 47.2808V54.9531H59.9023V47.2808C59.9023 47.1491 59.9543 47.0227 60.0467 46.9295C60.1392 46.8363 60.2645 46.7839 60.3953 46.7839Z" fill="white"/>
<path d="M65.3066 55.4501H59.8845C59.7538 55.4501 59.6284 55.3978 59.536 55.3046C59.4435 55.2114 59.3916 55.085 59.3916 54.9532V47.2809C59.3916 47.0173 59.4955 46.7646 59.6803 46.5782C59.8652 46.3918 60.116 46.2871 60.3774 46.2871H64.8137C65.0751 46.2871 65.3259 46.3918 65.5107 46.5782C65.6956 46.7646 65.7995 47.0173 65.7995 47.2809V54.9532C65.7995 55.085 65.7476 55.2114 65.6551 55.3046C65.5627 55.3978 65.4373 55.4501 65.3066 55.4501ZM60.3774 54.4563H64.8137V47.2809H60.3774V54.4563Z" fill="#0099AB"/>
<path d="M62.6052 50.5257C63.1633 50.5257 63.6157 50.0697 63.6157 49.5071C63.6157 48.9445 63.1633 48.4884 62.6052 48.4884C62.0471 48.4884 61.5947 48.9445 61.5947 49.5071C61.5947 50.0697 62.0471 50.5257 62.6052 50.5257Z" fill="white"/>
<path d="M62.6008 51.0224C62.3012 51.0223 62.0085 50.9324 61.7598 50.7639C61.5112 50.5955 61.3179 50.3562 61.2047 50.0767C61.0915 49.7971 61.0634 49.4898 61.124 49.1941C61.1846 48.8983 61.3313 48.6275 61.5452 48.4161C61.7591 48.2047 62.0306 48.0623 62.3251 48.007C62.6196 47.9517 62.9238 47.9861 63.1988 48.1058C63.4738 48.2255 63.7073 48.425 63.8694 48.6789C64.0316 48.9329 64.115 49.2297 64.1091 49.5317C64.1014 49.9298 63.9391 50.3089 63.657 50.5876C63.375 50.8664 62.9958 51.0225 62.6008 51.0224ZM62.6008 48.9801C62.4975 48.9801 62.3964 49.011 62.3105 49.0689C62.2246 49.1268 62.1576 49.209 62.1181 49.3053C62.0785 49.4015 62.0682 49.5074 62.0884 49.6096C62.1085 49.7118 62.1583 49.8056 62.2313 49.8793C62.3044 49.9529 62.3975 50.0031 62.4989 50.0234C62.6002 50.0438 62.7053 50.0333 62.8008 49.9935C62.8962 49.9536 62.9778 49.8861 63.0352 49.7995C63.0926 49.7128 63.1233 49.611 63.1233 49.5068C63.1233 49.3671 63.0682 49.2332 62.9703 49.1344C62.8723 49.0356 62.7394 48.9801 62.6008 48.9801Z" fill="#0099AB"/>
<path d="M76.6033 57.6761H81.0395C81.1702 57.6761 81.2956 57.7285 81.388 57.8217C81.4805 57.9149 81.5324 58.0413 81.5324 58.1731V65.8453H76.1104V58.1731C76.1104 58.0413 76.1623 57.9149 76.2547 57.8217C76.3472 57.7285 76.4725 57.6761 76.6033 57.6761Z" fill="white"/>
<path d="M81.5126 66.3373H76.0906C75.9598 66.3373 75.8345 66.285 75.742 66.1918C75.6496 66.0986 75.5977 65.9722 75.5977 65.8404V58.1731C75.5977 57.9096 75.7015 57.6568 75.8864 57.4704C76.0713 57.284 76.322 57.1793 76.5835 57.1793H81.0197C81.2812 57.1793 81.5319 57.284 81.7168 57.4704C81.9017 57.6568 82.0055 57.9096 82.0055 58.1731V65.8404C82.0055 65.9722 81.9536 66.0986 81.8612 66.1918C81.7687 66.285 81.6433 66.3373 81.5126 66.3373ZM76.5835 65.3435H81.0197V58.1731H76.5835V65.3435Z" fill="#0099AB"/>
<path d="M78.8113 61.4129C79.3693 61.4129 79.8217 60.9569 79.8217 60.3943C79.8217 59.8317 79.3693 59.3756 78.8113 59.3756C78.2532 59.3756 77.8008 59.8317 77.8008 60.3943C77.8008 60.9569 78.2532 61.4129 78.8113 61.4129Z" fill="white"/>
<path d="M78.8118 61.915C78.512 61.9159 78.2188 61.8268 77.9695 61.6589C77.7202 61.4911 77.5261 61.2522 77.4121 60.9727C77.2981 60.6932 77.2694 60.3858 77.3294 60.0897C77.3895 59.7936 77.5357 59.5223 77.7495 59.3104C77.9632 59.0985 78.2347 58.9556 78.5293 58.8999C78.824 58.8443 79.1284 58.8784 79.4037 58.9979C79.679 59.1174 79.9128 59.3169 80.0751 59.571C80.2375 59.825 80.3211 60.1221 80.3152 60.4243C80.3075 60.8215 80.1458 61.1999 79.8648 61.4785C79.5839 61.7571 79.2059 61.9138 78.8118 61.915ZM78.8118 59.8727C78.7392 59.8656 78.666 59.8738 78.5968 59.8969C78.5276 59.92 78.464 59.9575 78.41 60.0068C78.356 60.0562 78.3129 60.1164 78.2834 60.1836C78.2539 60.2508 78.2386 60.3234 78.2386 60.3969C78.2386 60.4704 78.2539 60.5431 78.2834 60.6103C78.3129 60.6774 78.356 60.7376 78.41 60.787C78.464 60.8364 78.5276 60.8738 78.5968 60.8969C78.666 60.92 78.7392 60.9283 78.8118 60.9212C78.941 60.9085 79.0608 60.8478 79.1481 60.7508C79.2353 60.6539 79.2836 60.5278 79.2836 60.3969C79.2836 60.2661 79.2353 60.1399 79.1481 60.043C79.0608 59.9461 78.941 59.8854 78.8118 59.8727Z" fill="#0099AB"/>
<path d="M76.6033 68.5785H81.0395C81.1702 68.5785 81.2956 68.6308 81.388 68.724C81.4805 68.8172 81.5324 68.9436 81.5324 69.0754V76.7477H76.1104V69.0754C76.1104 68.9436 76.1623 68.8172 76.2547 68.724C76.3472 68.6308 76.4725 68.5785 76.6033 68.5785Z" fill="white"/>
<path d="M81.5126 77.2296H76.0906C75.9598 77.2296 75.8345 77.1773 75.742 77.0841C75.6496 76.9909 75.5977 76.8645 75.5977 76.7327V69.0754C75.5977 68.8118 75.7015 68.559 75.8864 68.3726C76.0713 68.1862 76.322 68.0815 76.5835 68.0815H81.0197C81.2812 68.0815 81.5319 68.1862 81.7168 68.3726C81.9017 68.559 82.0055 68.8118 82.0055 69.0754V76.7476C82.0017 76.8768 81.9481 76.9994 81.856 77.0894C81.764 77.1794 81.6408 77.2297 81.5126 77.2296ZM76.5835 76.2358H81.0197V69.0754H76.5835V76.2358Z" fill="#0099AB"/>
<path d="M78.8113 72.3052C79.3693 72.3052 79.8217 71.8491 79.8217 71.2865C79.8217 70.7239 79.3693 70.2678 78.8113 70.2678C78.2532 70.2678 77.8008 70.7239 77.8008 71.2865C77.8008 71.8491 78.2532 72.3052 78.8113 72.3052Z" fill="white"/>
<path d="M78.81 72.802C78.5127 72.802 78.222 72.7131 77.9748 72.5466C77.7276 72.3801 77.5349 72.1434 77.4211 71.8664C77.3073 71.5895 77.2775 71.2848 77.3355 70.9908C77.3935 70.6968 77.5367 70.4267 77.747 70.2148C77.9572 70.0028 78.2251 69.8585 78.5167 69.8C78.8084 69.7415 79.1106 69.7715 79.3854 69.8862C79.6601 70.001 79.8949 70.1952 80.06 70.4444C80.2252 70.6937 80.3134 70.9867 80.3134 71.2864C80.3121 71.688 80.1533 72.0727 79.8716 72.3567C79.59 72.6406 79.2083 72.8007 78.81 72.802ZM78.81 70.7647C78.7137 70.7695 78.621 70.8028 78.5432 70.8602C78.4655 70.9177 78.4061 70.9969 78.3726 71.088C78.339 71.1791 78.3327 71.2782 78.3544 71.3729C78.3761 71.4676 78.4249 71.5538 78.4947 71.6208C78.5646 71.6878 78.6523 71.7328 78.7472 71.75C78.8421 71.7673 78.9399 71.7561 79.0286 71.7178C79.1172 71.6796 79.1928 71.616 79.2459 71.5349C79.2991 71.4538 79.3275 71.3588 79.3276 71.2616C79.3201 71.128 79.2624 71.0023 79.1663 70.91C79.0701 70.8177 78.9428 70.7657 78.81 70.7647Z" fill="#0099AB"/>
<path d="M76.6033 79.4557H81.0395C81.1702 79.4557 81.2956 79.508 81.388 79.6012C81.4805 79.6944 81.5324 79.8208 81.5324 79.9526V87.6249H76.1104V79.9526C76.1104 79.8208 76.1623 79.6944 76.2547 79.6012C76.3472 79.508 76.4725 79.4557 76.6033 79.4557Z" fill="white"/>
<path d="M81.5126 88.1168H76.0906C75.9598 88.1168 75.8345 88.0644 75.742 87.9712C75.6496 87.878 75.5977 87.7517 75.5977 87.6199V79.9526C75.5977 79.689 75.7015 79.4362 75.8864 79.2498C76.0713 79.0634 76.322 78.9587 76.5835 78.9587H81.0197C81.2812 78.9587 81.5319 79.0634 81.7168 79.2498C81.9017 79.4362 82.0055 79.689 82.0055 79.9526V87.6199C82.0055 87.7517 81.9536 87.878 81.8612 87.9712C81.7687 88.0644 81.6433 88.1168 81.5126 88.1168ZM76.5835 87.123H81.0197V79.9526H76.5835V87.123Z" fill="#0099AB"/>
<path d="M78.8113 83.1975C79.3693 83.1975 79.8217 82.7414 79.8217 82.1788C79.8217 81.6162 79.3693 81.1602 78.8113 81.1602C78.2532 81.1602 77.8008 81.6162 77.8008 82.1788C77.8008 82.7414 78.2532 83.1975 78.8113 83.1975Z" fill="white"/>
<path d="M78.8118 83.6943C78.512 83.6952 78.2188 83.6061 77.9695 83.4382C77.7202 83.2704 77.5261 83.0315 77.4121 82.752C77.2981 82.4725 77.2694 82.1651 77.3294 81.869C77.3895 81.5729 77.5357 81.3016 77.7495 81.0897C77.9632 80.8778 78.2347 80.7349 78.5293 80.6792C78.824 80.6236 79.1284 80.6577 79.4037 80.7772C79.679 80.8967 79.9128 81.0962 80.0751 81.3503C80.2375 81.6043 80.3211 81.9014 80.3152 82.2035C80.3075 82.6008 80.1458 82.9792 79.8648 83.2578C79.5839 83.5364 79.2059 83.693 78.8118 83.6943ZM78.8118 81.652C78.7392 81.6448 78.666 81.6531 78.5968 81.6762C78.5276 81.6993 78.464 81.7367 78.41 81.7861C78.356 81.8355 78.3129 81.8957 78.2834 81.9629C78.2539 82.0301 78.2386 82.1027 78.2386 82.1762C78.2386 82.2497 78.2539 82.3224 78.2834 82.3895C78.3129 82.4567 78.356 82.5169 78.41 82.5663C78.464 82.6157 78.5276 82.6531 78.5968 82.6762C78.666 82.6993 78.7392 82.7076 78.8118 82.7004C78.941 82.6878 79.0608 82.627 79.1481 82.5301C79.2353 82.4332 79.2836 82.3071 79.2836 82.1762C79.2836 82.0454 79.2353 81.9192 79.1481 81.8223C79.0608 81.7254 78.941 81.6647 78.8118 81.652Z" fill="#0099AB"/>
<path d="M44.8552 79.4557H49.2914C49.4222 79.4557 49.5475 79.508 49.64 79.6012C49.7324 79.6944 49.7844 79.8208 49.7844 79.9526V87.6249H44.3623V79.9526C44.3623 79.8208 44.4142 79.6944 44.5067 79.6012C44.5991 79.508 44.7245 79.4557 44.8552 79.4557Z" fill="white"/>
<path d="M49.7841 88.1168H44.3621C44.2313 88.1168 44.106 88.0644 44.0135 87.9712C43.9211 87.878 43.8691 87.7517 43.8691 87.6199V79.9526C43.8691 79.689 43.973 79.4362 44.1579 79.2498C44.3428 79.0634 44.5935 78.9587 44.855 78.9587H49.2912C49.5526 78.9587 49.8034 79.0634 49.9883 79.2498C50.1731 79.4362 50.277 79.689 50.277 79.9526V87.6199C50.277 87.7517 50.2251 87.878 50.1326 87.9712C50.0402 88.0644 49.9148 88.1168 49.7841 88.1168ZM44.855 87.123H49.2912V79.9526H44.855V87.123Z" fill="#0099AB"/>
<path d="M47.0788 83.1975C47.6369 83.1975 48.0893 82.7414 48.0893 82.1788C48.0893 81.6162 47.6369 81.1602 47.0788 81.1602C46.5208 81.1602 46.0684 81.6162 46.0684 82.1788C46.0684 82.7414 46.5208 83.1975 47.0788 83.1975Z" fill="white"/>
<path d="M47.0776 83.6943C46.7769 83.7002 46.4813 83.6153 46.2287 83.4506C45.9762 83.2858 45.7783 83.0486 45.6605 82.7696C45.5427 82.4906 45.5104 82.1824 45.5676 81.8847C45.6249 81.587 45.7691 81.3133 45.9818 81.0989C46.1945 80.8845 46.466 80.7391 46.7613 80.6814C47.0566 80.6236 47.3623 80.6563 47.6391 80.775C47.9158 80.8938 48.1511 81.0933 48.3145 81.3478C48.478 81.6024 48.5622 81.9004 48.5564 82.2036C48.5488 82.5966 48.3906 82.9714 48.1149 83.2493C47.8392 83.5272 47.4675 83.6867 47.0776 83.6943ZM47.0776 81.6521C46.9732 81.6461 46.8695 81.6718 46.7798 81.726C46.69 81.7801 46.6185 81.8601 46.5744 81.9557C46.5302 82.0513 46.5156 82.158 46.5323 82.262C46.549 82.3661 46.5963 82.4627 46.668 82.5394C46.7398 82.6161 46.8327 82.6693 46.9348 82.6921C47.0368 82.715 47.1434 82.7064 47.2406 82.6676C47.3378 82.6288 47.4212 82.5614 47.48 82.4743C47.5389 82.3871 47.5704 82.2842 47.5706 82.1788C47.572 82.0437 47.5214 81.9134 47.4295 81.8152C47.3376 81.717 47.2115 81.6585 47.0776 81.6521Z" fill="#0099AB"/>
<path d="M63.9555 30.4506H60.5791V44.0609H63.9555V30.4506Z" fill="white"/>
<path d="M63.9563 44.5578H60.5798C60.4491 44.5578 60.3237 44.5054 60.2313 44.4122C60.1388 44.319 60.0869 44.1926 60.0869 44.0608V30.4505C60.0869 30.3187 60.1388 30.1923 60.2313 30.0992C60.3237 30.006 60.4491 29.9536 60.5798 29.9536H63.9563C64.087 29.9536 64.2124 30.006 64.3048 30.0992C64.3973 30.1923 64.4492 30.3187 64.4492 30.4505V44.0608C64.4492 44.1926 64.3973 44.319 64.3048 44.4122C64.2124 44.5054 64.087 44.5578 63.9563 44.5578ZM61.0727 43.5639H63.4634V30.9474H61.0727V43.5639Z" fill="#0099AB"/>
<path d="M63.9558 6.62866H61.5947V30.4505H63.9558V6.62866Z" fill="white"/>
<path d="M63.9553 30.9475H61.614C61.4833 30.9475 61.3579 30.8951 61.2655 30.8019C61.173 30.7087 61.1211 30.5823 61.1211 30.4505V6.62874C61.1211 6.49696 61.173 6.37057 61.2655 6.27738C61.3579 6.18419 61.4833 6.13184 61.614 6.13184H63.9751C64.1058 6.13184 64.2312 6.18419 64.3236 6.27738C64.416 6.37057 64.468 6.49696 64.468 6.62874V30.4505C64.468 30.5175 64.4546 30.5838 64.4287 30.6454C64.4027 30.707 64.3646 30.7627 64.3167 30.8091C64.2688 30.8555 64.2121 30.8917 64.15 30.9155C64.0879 30.9393 64.0217 30.9501 63.9553 30.9475ZM62.0872 29.9536H63.4624V7.12565H62.1069L62.0872 29.9536Z" fill="#0099AB"/>
<path d="M63.9556 3.90576H61.9297V6.62882H63.9556V3.90576Z" fill="white"/>
<path d="M63.9573 7.12569H61.9314C61.8007 7.12569 61.6753 7.07334 61.5828 6.98015C61.4904 6.88696 61.4385 6.76057 61.4385 6.62878V3.90572C61.4385 3.77393 61.4904 3.64754 61.5828 3.55435C61.6753 3.46117 61.8007 3.40881 61.9314 3.40881H63.9573C64.088 3.40881 64.2134 3.46117 64.3058 3.55435C64.3983 3.64754 64.4502 3.77393 64.4502 3.90572V6.62878C64.4502 6.76057 64.3983 6.88696 64.3058 6.98015C64.2134 7.07334 64.088 7.12569 63.9573 7.12569ZM62.4243 6.13187H63.4644V4.40263H62.4243V6.13187Z" fill="#0099AB"/>
<path d="M61.9314 24.4777C61.8007 24.4777 61.6753 24.4254 61.5828 24.3322C61.4904 24.239 61.4385 24.1126 61.4385 23.9808C61.4385 23.849 61.4904 23.7226 61.5828 23.6295C61.6753 23.5363 61.8007 23.4839 61.9314 23.4839L66.6584 23.4541C66.7892 23.4541 66.9145 23.5065 67.007 23.5996C67.0994 23.6928 67.1513 23.8192 67.1513 23.951C67.1513 24.0828 67.0994 24.2092 67.007 24.3024C66.9145 24.3956 66.7892 24.4479 66.6584 24.4479L61.9314 24.4777Z" fill="#0099AB"/>
<path d="M61.9314 19.3843C61.8007 19.3843 61.6753 19.332 61.5828 19.2388C61.4904 19.1456 61.4385 19.0192 61.4385 18.8874C61.4385 18.7557 61.4904 18.6293 61.5828 18.5361C61.6753 18.4429 61.8007 18.3905 61.9314 18.3905L66.6584 18.3607C66.7892 18.3607 66.9145 18.4131 67.007 18.5063C67.0994 18.5994 67.1513 18.7258 67.1513 18.8576C67.1513 18.9894 67.0994 19.1158 67.007 19.209C66.9145 19.3022 66.7892 19.3545 66.6584 19.3545L61.9314 19.3843Z" fill="#0099AB"/>
<path d="M61.9314 14.6091C61.8007 14.6091 61.6753 14.5567 61.5828 14.4635C61.4904 14.3704 61.4385 14.244 61.4385 14.1122C61.4385 13.9804 61.4904 13.854 61.5828 13.7608C61.6753 13.6676 61.8007 13.6153 61.9314 13.6153L66.6584 13.5854C66.7892 13.5854 66.9145 13.6378 67.007 13.731C67.0994 13.8242 67.1513 13.9506 67.1513 14.0824C67.1513 14.2141 67.0994 14.3405 67.007 14.4337C66.9145 14.5269 66.7892 14.5793 66.6584 14.5793L61.9314 14.6091Z" fill="#0099AB"/>
<path d="M65.3061 8.67096H61.9297V6.62866H65.9814L65.3061 8.67096Z" fill="white"/>
<path d="M65.3079 9.16795H61.9314C61.8007 9.16795 61.6753 9.1156 61.5828 9.02241C61.4904 8.92922 61.4385 8.80283 61.4385 8.67104V6.62875C61.4385 6.49696 61.4904 6.37057 61.5828 6.27738C61.6753 6.18419 61.8007 6.13184 61.9314 6.13184H65.9831C66.0609 6.13163 66.1376 6.14999 66.207 6.1854C66.2764 6.22081 66.3365 6.27227 66.3824 6.33557C66.4282 6.39928 66.4583 6.47305 66.4703 6.5508C66.4823 6.62855 66.4758 6.70806 66.4514 6.78279L65.7761 8.82508C65.7439 8.92471 65.6813 9.01151 65.5972 9.07309C65.5131 9.13467 65.4118 9.16787 65.3079 9.16795ZM62.4243 8.17413H64.953L65.298 7.12566H62.4243V8.17413Z" fill="#0099AB"/>
<path d="M62.9455 3.90081C63.8765 3.90081 64.6313 3.13995 64.6313 2.20138C64.6313 1.26281 63.8765 0.501953 62.9455 0.501953C62.0145 0.501953 61.2598 1.26281 61.2598 2.20138C61.2598 3.13995 62.0145 3.90081 62.9455 3.90081Z" fill="white"/>
<path d="M62.9446 4.40261C62.5126 4.40359 62.0899 4.27532 61.7302 4.03404C61.3704 3.79275 61.0898 3.4493 60.9237 3.04715C60.7577 2.645 60.7138 2.20224 60.7975 1.7749C60.8812 1.34756 61.0887 0.954864 61.3939 0.646508C61.6991 0.338153 62.0882 0.128005 62.5119 0.0426634C62.9356 -0.0426779 63.3749 0.000624102 63.7742 0.167089C64.1735 0.333553 64.5148 0.615696 64.755 0.977806C64.9951 1.33992 65.1233 1.76571 65.1233 2.2013C65.122 2.78386 64.8922 3.34226 64.4841 3.75466C64.0759 4.16706 63.5225 4.39998 62.9446 4.40261ZM62.9446 0.998782C62.7073 0.997799 62.4751 1.06791 62.2773 1.20021C62.0796 1.33251 61.9253 1.52104 61.8341 1.74188C61.7428 1.96273 61.7187 2.20592 61.7647 2.44061C61.8108 2.6753 61.925 2.89091 62.0928 3.06008C62.2606 3.22925 62.4745 3.34435 62.7073 3.39079C62.9401 3.43722 63.1813 3.41289 63.4004 3.32088C63.6194 3.22887 63.8065 3.07334 63.9377 2.87401C64.0689 2.67468 64.1385 2.44054 64.1375 2.2013C64.1362 1.88278 64.0101 1.57767 63.7867 1.35244C63.5633 1.1272 63.2606 1.00009 62.9446 0.998782Z" fill="#0099AB"/>
<path d="M70.2156 58.3569H67.8249C67.5527 58.3569 67.332 58.5794 67.332 58.8538V61.9446C67.332 62.2191 67.5527 62.4415 67.8249 62.4415H70.2156C70.4878 62.4415 70.7085 62.2191 70.7085 61.9446V58.8538C70.7085 58.5794 70.4878 58.3569 70.2156 58.3569Z" fill="white"/>
<path d="M70.2143 62.9335H67.8237C67.5623 62.9335 67.3115 62.8288 67.1266 62.6425C66.9418 62.4561 66.8379 62.2033 66.8379 61.9397V58.8539C66.8379 58.5903 66.9418 58.3376 67.1266 58.1512C67.3115 57.9648 67.5623 57.8601 67.8237 57.8601H70.2143C70.4758 57.8601 70.7266 57.9648 70.9114 58.1512C71.0963 58.3376 71.2002 58.5903 71.2002 58.8539V61.9397C71.2002 62.2033 71.0963 62.4561 70.9114 62.6425C70.7266 62.8288 70.4758 62.9335 70.2143 62.9335ZM67.8237 58.8539V61.9397H70.2143V58.8539H67.8237Z" fill="#0099AB"/>
<path d="M64.8132 58.3569H62.4226C62.1504 58.3569 61.9297 58.5794 61.9297 58.8538V61.9446C61.9297 62.2191 62.1504 62.4415 62.4226 62.4415H64.8132C65.0855 62.4415 65.3061 62.2191 65.3061 61.9446V58.8538C65.3061 58.5794 65.0855 58.3569 64.8132 58.3569Z" fill="white"/>
<path d="M64.8149 62.9335H62.4243C62.1628 62.9335 61.9121 62.8288 61.7272 62.6425C61.5423 62.4561 61.4385 62.2033 61.4385 61.9397V58.8539C61.4385 58.5903 61.5423 58.3376 61.7272 58.1512C61.9121 57.9648 62.1628 57.8601 62.4243 57.8601H64.8149C65.0764 57.8601 65.3271 57.9648 65.512 58.1512C65.6969 58.3376 65.8008 58.5903 65.8008 58.8539V61.9397C65.8008 62.2033 65.6969 62.4561 65.512 62.6425C65.3271 62.8288 65.0764 62.9335 64.8149 62.9335ZM62.4243 58.8539V61.9397H64.8149V58.8539H62.4243Z" fill="#0099AB"/>
<path d="M70.2156 69.2443H67.8249C67.5527 69.2443 67.332 69.4667 67.332 69.7412V72.8319C67.332 73.1064 67.5527 73.3288 67.8249 73.3288H70.2156C70.4878 73.3288 70.7085 73.1064 70.7085 72.8319V69.7412C70.7085 69.4667 70.4878 69.2443 70.2156 69.2443Z" fill="white"/>
<path d="M70.2143 73.8257H67.8237C67.5623 73.8257 67.3115 73.721 67.1266 73.5346C66.9418 73.3483 66.8379 73.0955 66.8379 72.8319V69.7411C66.8379 69.4776 66.9418 69.2248 67.1266 69.0384C67.3115 68.852 67.5623 68.7473 67.8237 68.7473H70.2143C70.4758 68.7473 70.7266 68.852 70.9114 69.0384C71.0963 69.2248 71.2002 69.4776 71.2002 69.7411V72.8319C71.2002 73.0955 71.0963 73.3483 70.9114 73.5346C70.7266 73.721 70.4758 73.8257 70.2143 73.8257ZM67.8237 69.7411V72.8319H70.2143V69.7411H67.8237Z" fill="#0099AB"/>
<path d="M64.8132 69.2443H62.4226C62.1504 69.2443 61.9297 69.4667 61.9297 69.7412V72.8319C61.9297 73.1064 62.1504 73.3288 62.4226 73.3288H64.8132C65.0855 73.3288 65.3061 73.1064 65.3061 72.8319V69.7412C65.3061 69.4667 65.0855 69.2443 64.8132 69.2443Z" fill="white"/>
<path d="M64.8149 73.8257H62.4243C62.1628 73.8257 61.9121 73.721 61.7272 73.5346C61.5423 73.3483 61.4385 73.0955 61.4385 72.8319V69.7411C61.4385 69.4776 61.5423 69.2248 61.7272 69.0384C61.9121 68.852 62.1628 68.7473 62.4243 68.7473H64.8149C65.0764 68.7473 65.3271 68.852 65.512 69.0384C65.6969 69.2248 65.8008 69.4776 65.8008 69.7411V72.8319C65.8008 73.0955 65.6969 73.3483 65.512 73.5346C65.3271 73.721 65.0764 73.8257 64.8149 73.8257ZM62.4243 69.7411V72.8319H64.8149V69.7411H62.4243Z" fill="#0099AB"/>
<path d="M52.6628 69.2443H50.2722C50 69.2443 49.7793 69.4667 49.7793 69.7412V72.8319C49.7793 73.1064 50 73.3288 50.2722 73.3288H52.6628C52.9351 73.3288 53.1558 73.1064 53.1558 72.8319V69.7412C53.1558 69.4667 52.9351 69.2443 52.6628 69.2443Z" fill="white"/>
<path d="M52.6635 73.8257H50.2778C50.0164 73.8257 49.7656 73.721 49.5807 73.5347C49.3959 73.3483 49.292 73.0955 49.292 72.8319V69.7411C49.292 69.4776 49.3959 69.2248 49.5807 69.0384C49.7656 68.852 50.0164 68.7473 50.2778 68.7473H52.6684C52.9299 68.7473 53.1807 68.852 53.3655 69.0384C53.5504 69.2248 53.6543 69.4776 53.6543 69.7411V72.8319C53.6543 72.9628 53.6286 73.0925 53.5788 73.2134C53.5289 73.3343 53.4559 73.4441 53.3638 73.5364C53.2717 73.6288 53.1625 73.7019 53.0423 73.7515C52.9221 73.8012 52.7934 73.8264 52.6635 73.8257ZM50.2778 69.7411V72.8319H52.6684V69.7411H50.2778Z" fill="#0099AB"/>
<path d="M47.2605 69.2443H44.8699C44.5976 69.2443 44.377 69.4667 44.377 69.7412V72.8319C44.377 73.1064 44.5976 73.3288 44.8699 73.3288H47.2605C47.5327 73.3288 47.7534 73.1064 47.7534 72.8319V69.7412C47.7534 69.4667 47.5327 69.2443 47.2605 69.2443Z" fill="white"/>
<path d="M47.2604 73.8257H44.855C44.5935 73.8257 44.3428 73.721 44.1579 73.5346C43.973 73.3483 43.8691 73.0955 43.8691 72.8319V69.7411C43.8691 69.4776 43.973 69.2248 44.1579 69.0384C44.3428 68.852 44.5935 68.7473 44.855 68.7473H47.2456C47.5071 68.7473 47.7578 68.852 47.9427 69.0384C48.1276 69.2248 48.2314 69.4776 48.2314 69.7411V72.8319C48.2314 73.0929 48.1296 73.3435 47.9479 73.5294C47.7662 73.7154 47.5193 73.8218 47.2604 73.8257ZM44.855 69.7411V72.8319H47.2456V69.7411H44.855Z" fill="#0099AB"/>
<path d="M70.2156 80.1365H67.8249C67.5527 80.1365 67.332 80.3589 67.332 80.6334V83.7241C67.332 83.9986 67.5527 84.2211 67.8249 84.2211H70.2156C70.4878 84.2211 70.7085 83.9986 70.7085 83.7241V80.6334C70.7085 80.3589 70.4878 80.1365 70.2156 80.1365Z" fill="white"/>
<path d="M70.2143 84.713H67.8237C67.5623 84.713 67.3115 84.6083 67.1266 84.4219C66.9418 84.2355 66.8379 83.9827 66.8379 83.7192V80.6333C66.8379 80.3698 66.9418 80.117 67.1266 79.9306C67.3115 79.7442 67.5623 79.6395 67.8237 79.6395H70.2143C70.4758 79.6395 70.7266 79.7442 70.9114 79.9306C71.0963 80.117 71.2002 80.3698 71.2002 80.6333V83.7192C71.2002 83.9827 71.0963 84.2355 70.9114 84.4219C70.7266 84.6083 70.4758 84.713 70.2143 84.713ZM67.8237 80.6333V83.7192H70.2143V80.6333H67.8237Z" fill="#0099AB"/>
<path d="M64.8132 80.1365H62.4226C62.1504 80.1365 61.9297 80.3589 61.9297 80.6334V83.7241C61.9297 83.9986 62.1504 84.2211 62.4226 84.2211H64.8132C65.0855 84.2211 65.3061 83.9986 65.3061 83.7241V80.6334C65.3061 80.3589 65.0855 80.1365 64.8132 80.1365Z" fill="white"/>
<path d="M64.8149 84.713H62.4243C62.1628 84.713 61.9121 84.6083 61.7272 84.4219C61.5423 84.2355 61.4385 83.9827 61.4385 83.7192V80.6333C61.4385 80.3698 61.5423 80.117 61.7272 79.9306C61.9121 79.7442 62.1628 79.6395 62.4243 79.6395H64.8149C65.0764 79.6395 65.3271 79.7442 65.512 79.9306C65.6969 80.117 65.8008 80.3698 65.8008 80.6333V83.7192C65.8008 83.9827 65.6969 84.2355 65.512 84.4219C65.3271 84.6083 65.0764 84.713 64.8149 84.713ZM62.4243 80.6333V83.7192H64.8149V80.6333H62.4243Z" fill="#0099AB"/>
<path d="M42.3515 35.216H31.4532C31.2935 35.215 31.1387 35.2716 31.0168 35.3754C30.8948 35.4793 30.8136 35.6236 30.7877 35.7824L26.1494 65.8355H43.0268V35.8967C43.0268 35.8073 43.0093 35.7188 42.9754 35.6362C42.9414 35.5536 42.8917 35.4786 42.829 35.4153C42.7663 35.3521 42.6918 35.302 42.6099 35.2678C42.528 35.2336 42.4402 35.216 42.3515 35.216Z" fill="white"/>
<path d="M43.5212 66.3374H25.5742L30.3013 35.713C30.3428 35.4351 30.4822 35.1817 30.6941 34.9992C30.9059 34.8166 31.176 34.7172 31.4547 34.7191H42.353C42.662 34.7191 42.9584 34.8425 43.1773 35.0623C43.3962 35.2821 43.5199 35.5804 43.5212 35.8918V66.3374ZM26.7276 65.3436H42.5354V35.8918C42.5354 35.8679 42.5306 35.8443 42.5214 35.8222C42.5122 35.8002 42.4987 35.7802 42.4817 35.7636C42.4647 35.7469 42.4445 35.7338 42.4224 35.7251C42.4003 35.7164 42.3767 35.7123 42.353 35.713H31.4547C31.4113 35.7134 31.3694 35.7289 31.3361 35.757C31.3028 35.7851 31.2803 35.824 31.2723 35.867L26.7276 65.3436Z" fill="#0099AB"/>
<path d="M375.875 76.7327H371.148V87.6249H375.875V76.7327Z" fill="white"/>
<path d="M375.876 88.1167H371.164C371.033 88.1167 370.908 88.0643 370.815 87.9711C370.723 87.878 370.671 87.7516 370.671 87.6198V76.7325C370.671 76.6007 370.723 76.4743 370.815 76.3811C370.908 76.2879 371.033 76.2356 371.164 76.2356H375.891C376.022 76.2356 376.147 76.2879 376.239 76.3811C376.332 76.4743 376.384 76.6007 376.384 76.7325V87.6198C376.384 87.6863 376.371 87.7522 376.345 87.8134C376.319 87.8747 376.282 87.9302 376.234 87.9765C376.187 88.0229 376.131 88.0592 376.069 88.0832C376.008 88.1073 375.942 88.1187 375.876 88.1167ZM371.642 87.1229H375.383V77.2294H371.657L371.642 87.1229Z" fill="#0099AB"/>
<path d="M375.875 57.6761H373.85V76.7326H375.875V57.6761Z" fill="white"/>
<path d="M375.876 77.2296H373.85C373.72 77.2296 373.594 77.1772 373.502 77.0841C373.409 76.9909 373.357 76.8645 373.357 76.7327V57.6762C373.357 57.5444 373.409 57.4181 373.502 57.3249C373.594 57.2317 373.72 57.1793 373.85 57.1793H375.876C376.007 57.1793 376.132 57.2317 376.225 57.3249C376.317 57.4181 376.369 57.5444 376.369 57.6762V76.7327C376.369 76.8645 376.317 76.9909 376.225 77.0841C376.132 77.1772 376.007 77.2296 375.876 77.2296ZM374.343 76.2358H375.383V58.1731H374.343V76.2358Z" fill="#0099AB"/>
<path d="M375.876 103.774H370.454C370.323 103.774 370.198 103.722 370.105 103.629C370.013 103.536 369.961 103.409 369.961 103.277C369.961 103.146 370.013 103.019 370.105 102.926C370.198 102.833 370.323 102.781 370.454 102.781H375.876C376.007 102.781 376.132 102.833 376.224 102.926C376.317 103.019 376.369 103.146 376.369 103.277C376.369 103.409 376.317 103.536 376.224 103.629C376.132 103.722 376.007 103.774 375.876 103.774Z" fill="#0099AB"/>
<path d="M359.001 103.774H353.579C353.448 103.774 353.323 103.722 353.23 103.629C353.138 103.536 353.086 103.409 353.086 103.277C353.086 103.146 353.138 103.019 353.23 102.926C353.323 102.833 353.448 102.781 353.579 102.781H359.001C359.132 102.781 359.257 102.833 359.349 102.926C359.442 103.019 359.494 103.146 359.494 103.277C359.494 103.409 359.442 103.536 359.349 103.629C359.257 103.722 359.132 103.774 359.001 103.774Z" fill="#0099AB"/>
<path d="M247.593 103.774H242.196C242.065 103.774 241.94 103.722 241.848 103.629C241.755 103.536 241.703 103.409 241.703 103.277C241.703 103.146 241.755 103.019 241.848 102.926C241.94 102.833 242.065 102.781 242.196 102.781H247.593C247.724 102.781 247.85 102.833 247.942 102.926C248.034 103.019 248.086 103.146 248.086 103.277C248.086 103.409 248.034 103.536 247.942 103.629C247.85 103.722 247.724 103.774 247.593 103.774Z" fill="#0099AB"/>
<path d="M230.718 103.774H225.296C225.165 103.774 225.04 103.722 224.947 103.629C224.855 103.536 224.803 103.409 224.803 103.277C224.803 103.146 224.855 103.019 224.947 102.926C225.04 102.833 225.165 102.781 225.296 102.781H230.718C230.848 102.781 230.974 102.833 231.066 102.926C231.159 103.019 231.211 103.146 231.211 103.277C231.211 103.409 231.159 103.536 231.066 103.629C230.974 103.722 230.848 103.774 230.718 103.774Z" fill="#0099AB"/>
<path d="M97.0409 103.774H91.6189C91.4882 103.774 91.3628 103.722 91.2703 103.629C91.1779 103.536 91.126 103.409 91.126 103.277C91.126 103.146 91.1779 103.019 91.2703 102.926C91.3628 102.833 91.4882 102.781 91.6189 102.781H97.0409C97.1717 102.781 97.297 102.833 97.3895 102.926C97.4819 103.019 97.5339 103.146 97.5339 103.277C97.5339 103.409 97.4819 103.536 97.3895 103.629C97.297 103.722 97.1717 103.774 97.0409 103.774Z" fill="#0099AB"/>
<path d="M80.162 103.774H74.74C74.6093 103.774 74.4839 103.722 74.3914 103.629C74.299 103.536 74.2471 103.409 74.2471 103.277C74.2471 103.146 74.299 103.019 74.3914 102.926C74.4839 102.833 74.6093 102.781 74.74 102.781H80.162C80.2928 102.781 80.4181 102.833 80.5106 102.926C80.603 103.019 80.6549 103.146 80.6549 103.277C80.6549 103.409 80.603 103.536 80.5106 103.629C80.4181 103.722 80.2928 103.774 80.162 103.774Z" fill="#0099AB"/>
<path d="M39.6503 103.774H34.2283C34.0975 103.774 33.9722 103.722 33.8797 103.629C33.7873 103.536 33.7354 103.409 33.7354 103.277C33.7354 103.146 33.7873 103.019 33.8797 102.926C33.9722 102.833 34.0975 102.781 34.2283 102.781H39.6503C39.781 102.781 39.9064 102.833 39.9989 102.926C40.0913 103.019 40.1432 103.146 40.1432 103.277C40.1432 103.409 40.0913 103.536 39.9989 103.629C39.9064 103.722 39.781 103.774 39.6503 103.774Z" fill="#0099AB"/>
<path d="M22.7714 103.774H17.3494C17.2186 103.774 17.0933 103.722 17.0008 103.629C16.9084 103.536 16.8564 103.409 16.8564 103.277C16.8564 103.146 16.9084 103.019 17.0008 102.926C17.0933 102.833 17.2186 102.781 17.3494 102.781H22.7714C22.9021 102.781 23.0275 102.833 23.1199 102.926C23.2124 103.019 23.2643 103.146 23.2643 103.277C23.2643 103.409 23.2124 103.536 23.1199 103.629C23.0275 103.722 22.9021 103.774 22.7714 103.774Z" fill="#0099AB"/>
<path d="M375.876 114.517H7.69922V115.511H375.876V114.517Z" fill="#0099AB"/>
</svg>
